<svg width="126" height="31" viewBox="0 0 126 31" fill="none" xmlns="http://www.w3.org/2000/svg">
<path d="M37.9973 10.1893C37.957 10.134 37.9211 10.0884 37.8867 10.0488C37.9196 10.0944 37.9517 10.1393 37.9846 10.1849C37.9884 10.1856 37.9921 10.1871 37.9973 10.1893Z" fill="#EAE9E6"/>
<path d="M32.8232 10.8118C32.8232 10.8163 32.8277 10.8133 32.83 10.8156C32.8397 10.7931 32.8412 10.7849 32.8232 10.8118Z" fill="#EAE9E6"/>
<path d="M38.0537 10.2812C38.0851 10.3276 38.1172 10.3747 38.1494 10.4225C38.1068 10.3575 38.0776 10.3141 38.0537 10.2812Z" fill="#EAE9E6"/>
<path d="M27.251 14.1064C27.2839 14.1782 27.2996 14.226 27.31 14.2649C27.3048 14.2029 27.6 14.6349 27.251 14.1064Z" fill="#EAE9E6"/>
<path d="M37.9796 10.2036C37.9998 10.2148 38.0215 10.2372 38.0536 10.2813C38.0297 10.2477 38.0073 10.2155 37.9856 10.1841C37.9744 10.1789 37.9684 10.1804 37.9796 10.2036Z" fill="#EAE9E6"/>
<path d="M24.5706 28.7591C24.395 28.7569 24.2164 28.7554 24.0684 28.7539L24.5706 28.7591Z" fill="#EAE9E6"/>
<path d="M12.9003 9.62793C12.8712 9.66904 12.8465 9.70791 12.8315 9.73855L12.9003 9.62793Z" fill="#EAE9E6"/>
<path d="M22.3229 28.7594C22.222 28.7444 22.1144 28.7362 22.0038 28.731C21.9806 28.7339 21.9537 28.7369 21.938 28.7414L22.3229 28.7594Z" fill="#EAE9E6"/>
<path d="M19.7392 28.7573C19.7078 28.7581 19.6801 28.7596 19.6592 28.7611C19.6809 28.7603 19.7115 28.7588 19.7392 28.7573Z" fill="#EAE9E6"/>
<path d="M11.7998 11.2344C11.8185 11.203 11.8402 11.1664 11.8648 11.123C11.8439 11.1589 11.8215 11.197 11.7998 11.2344Z" fill="#EAE9E6"/>
<path d="M50.2795 28.4191C50.2817 28.4147 50.2795 28.4109 50.2705 28.4072C50.1606 28.2502 50.0515 28.094 49.9431 27.94C49.8168 27.7532 49.692 27.5693 49.5701 27.3892L49.6651 27.5402C49.615 27.5162 49.5537 27.4303 49.4812 27.3122C49.4857 27.3167 49.4902 27.3212 49.4924 27.3242C49.4849 27.3137 49.4767 27.3032 49.4685 27.2928C49.3414 27.0835 49.183 26.7845 48.9961 26.5483C49.0671 26.6432 49.1194 26.653 49.094 26.6313C48.7442 26.0924 48.3429 25.5527 47.7838 24.7694C47.7763 24.7582 47.7696 24.7462 47.7628 24.7358L47.8368 24.8143C47.6358 24.4846 47.2755 23.9659 47.0498 23.6154C47.0012 23.5638 46.9384 23.4778 46.9033 23.4375C46.8495 23.362 46.8016 23.2955 46.7598 23.2342C46.5176 22.8246 46.2553 22.4479 45.9944 22.0831L45.9757 22.0457L45.9548 22.0271C45.8957 21.9456 45.8374 21.8641 45.7791 21.7834C45.7754 21.7752 45.7747 21.7714 45.7791 21.7759C45.7216 21.6989 45.6984 21.669 45.6917 21.6623C45.6237 21.5674 45.5557 21.4725 45.4891 21.3775C45.3935 21.234 45.2903 21.0838 45.1999 20.95C45.096 20.7908 44.9966 20.6293 44.9046 20.4649C44.9809 20.5778 45.1012 20.7243 45.0407 20.6346L44.5092 19.8804C44.4943 19.8557 44.4749 19.8229 44.4479 19.7795C44.3762 19.6995 44.2843 19.565 44.1871 19.4155C44.1819 19.4035 44.1736 19.3871 44.1594 19.3624C44.1594 19.3654 44.1654 19.3781 44.1751 19.3968C44.0496 19.2025 43.9158 18.985 43.8059 18.828C43.7745 18.8295 43.3739 18.2091 43.0398 17.7315C43.0457 17.7368 43.0211 17.6971 42.9762 17.6276C42.9217 17.5387 42.8731 17.4692 42.7901 17.3399L42.8051 17.3638L42.45 16.801L42.5345 16.9482C42.5293 16.943 42.524 16.937 42.5181 16.9318C42.3805 16.7232 42.2423 16.5147 42.1428 16.3615L42.1556 16.3719C42.0898 16.3144 41.8783 16.0027 41.6772 15.7097C41.6772 15.7037 41.6794 15.7 41.6862 15.7022C41.6675 15.6693 41.6458 15.6335 41.6249 15.5968C41.6488 15.6275 41.6787 15.6678 41.7153 15.7187C41.7004 15.7075 41.6921 15.7045 41.6854 15.7022C41.6854 15.7037 41.6869 15.7052 41.6869 15.7052L41.7168 15.7209C41.7213 15.7276 41.7258 15.7329 41.731 15.7403L41.7183 15.7217L41.7213 15.7232C41.7213 15.7232 41.719 15.7217 41.7176 15.7202L41.5711 15.5034C41.5606 15.4855 41.5516 15.4683 41.5434 15.4533C41.5531 15.4645 41.5628 15.4757 41.5718 15.4862L41.5344 15.4369C41.509 15.3898 41.4986 15.3651 41.5202 15.3868C41.3147 15.1476 41.2512 14.9383 40.9597 14.6012C40.9604 14.5766 40.7735 14.3232 40.8431 14.3613C40.6054 14.0302 40.8759 14.4547 40.8423 14.4368C40.8416 14.4361 40.8408 14.4346 40.8401 14.4338C40.6913 14.2208 40.5351 13.9928 40.3684 13.7342C40.3654 13.7327 40.3647 13.7342 40.3654 13.7402C40.1913 13.4651 40.0059 13.1662 39.7959 12.8649C39.7936 12.8567 39.7892 12.8463 39.7824 12.8343C39.7809 12.8358 39.7847 12.8448 39.7922 12.8597C39.7062 12.7371 39.6158 12.6146 39.5208 12.4927C39.473 12.412 39.538 12.489 39.4259 12.3141C39.3482 12.2177 39.1755 11.9426 39.1523 11.9478C39.0686 11.8245 39.0619 11.7954 39.035 11.7445C38.8795 11.5315 38.3429 10.7265 38.4901 10.9859L38.5267 11.0427C38.5193 11.0322 38.511 11.0203 38.5021 11.0076C38.3541 10.7998 38.2061 10.5838 38.0596 10.3655C38.0514 10.3476 38.0416 10.3281 38.0312 10.3065C37.9916 10.2489 37.9617 10.2115 37.937 10.1824C37.8757 10.0905 37.8152 9.99852 37.7546 9.90658C37.7928 9.94246 37.8369 9.98656 37.8884 10.0471C37.7756 9.89686 37.6627 9.74663 37.5491 9.59565C37.4699 9.47606 37.3906 9.35721 37.3121 9.23912C37.3667 9.3034 37.4444 9.40355 37.4908 9.45662C37.3533 9.26528 37.1716 9.00816 37.0221 8.80859L37.0274 8.80635C36.91 8.63892 36.7837 8.45505 36.6611 8.27567C36.6716 8.27343 36.6731 8.25773 36.6611 8.2226C36.5976 8.15907 36.555 8.11198 36.5176 8.06713C36.3861 7.87654 36.2642 7.70164 36.1671 7.57158C36.0826 7.44601 35.978 7.26812 36.0221 7.31671C35.9346 7.19263 35.8778 7.11116 35.821 7.03044C35.818 7.02595 35.8143 7.02072 35.8113 7.01623L35.8659 7.05809L35.6782 6.80471C35.667 6.7935 35.6596 6.78752 35.6536 6.78602C35.6364 6.75986 35.6177 6.73296 35.5983 6.70306C35.5788 6.73221 35.5572 6.7651 35.5332 6.80097C35.5273 6.80097 35.5205 6.80396 35.5116 6.80845C35.5303 6.78004 35.5579 6.73744 35.5983 6.6754C35.614 6.69857 35.6424 6.74043 35.6753 6.79051C35.6446 6.74417 35.6162 6.70082 35.5983 6.67391C35.5654 6.72399 35.5347 6.76958 35.5063 6.81218C35.4533 6.84582 35.3486 6.96167 35.1408 7.24719L34.865 7.75321L34.7372 7.89074L34.9973 7.48264C34.8224 7.6964 34.7522 7.85785 34.6625 8.032C34.6229 8.06115 34.5683 8.12244 34.501 8.21438L34.288 8.64864C34.2708 8.6748 34.2536 8.70096 34.2372 8.72638C34.2245 8.7032 34.3149 8.52232 34.1258 8.7929C34.0473 8.95285 34.1587 8.81756 34.1737 8.82504C34.1146 8.91772 34.0571 9.00891 34.0017 9.0986C33.9203 9.18754 33.9068 9.18904 33.7887 9.41028C33.7491 9.43868 33.7768 9.37515 33.8396 9.26378C33.7073 9.5067 33.4576 9.87594 33.3941 10.0329L33.3672 10.0763C33.1773 10.3124 32.8694 10.8715 32.8313 10.814C32.7991 10.891 32.6347 11.2019 32.5001 11.4254C32.4882 11.4441 32.4755 11.4627 32.4643 11.4807C32.6429 11.0644 31.9224 12.3171 31.9209 12.1661C31.7871 12.5039 31.2504 13.2671 30.941 13.8194C30.9552 13.7865 30.9836 13.7223 31.0165 13.6774C30.8191 13.9734 30.7459 14.0489 30.6106 14.2343C30.6315 14.2955 30.4103 14.67 30.2675 14.9428C30.2324 15.0019 30.2234 15.0228 30.2055 15.0579C29.9417 15.3689 30.2997 14.7889 30.1816 14.8741C30.2332 14.8808 29.8116 15.5363 29.9245 15.4331C29.7152 15.6947 29.7548 15.6656 29.6217 15.7844C29.6509 15.8726 29.464 16.052 29.3519 16.3084C29.2062 16.502 29.1755 16.5184 29.1471 16.5446C29.1329 16.5573 29.1195 16.573 29.0933 16.6134C29.0806 16.6335 29.0649 16.6589 29.0432 16.6933C29.0395 16.7015 29.035 16.712 29.0298 16.7255C29.0111 16.7344 29.0171 16.7023 29.0156 16.6881C29.0156 16.6806 29.0141 16.6754 29.0118 16.6724C29.0156 16.6612 29.0417 16.6178 29.038 16.6231C29.029 16.6373 29.0201 16.6507 29.0118 16.6634C29.0044 16.6746 29.0096 16.6672 29.0081 16.6702V16.6724C29.0089 16.6769 29.0096 16.6799 29.0096 16.6821C29.0111 16.7038 29.0111 16.712 29.0118 16.7187C29.0126 16.7442 29.0208 16.7636 29.0193 16.7927C29.0156 16.7987 29.0111 16.8054 29.0074 16.8122L29.0021 16.8039C29.0021 16.8099 29.0044 16.8181 29.0074 16.8279C29.0074 16.8279 29.0074 16.8279 29.0081 16.8279C29.0081 16.8286 29.0066 16.8301 29.0059 16.8316C28.9946 16.8167 28.9857 16.8032 28.9782 16.7912C28.9745 16.7845 28.9707 16.7778 28.9677 16.7733C28.9625 16.7636 28.9603 16.7576 28.9618 16.7576C28.9573 16.7516 28.9543 16.7479 28.9506 16.7434C28.9416 16.7225 28.9423 16.712 28.9483 16.706C28.9543 16.6873 28.9827 16.6941 28.9363 16.5991C28.742 16.3241 28.5626 16.1178 28.4139 15.9093C28.3788 15.8532 28.3496 15.8084 28.3257 15.7717C28.3175 15.7478 28.3055 15.7224 28.3436 15.7643C28.0746 15.4324 27.6508 14.7096 27.3338 14.3247C27.3174 14.2911 27.3114 14.2731 27.3099 14.2634C27.3152 14.2851 27.3181 14.3023 27.3189 14.3165C27.2897 14.2754 27.2606 14.232 27.2232 14.1745L27.3189 14.3262C27.3189 14.3314 27.3189 14.3367 27.3174 14.3404C27.2456 14.241 27.138 14.0758 26.9967 13.8665C26.99 13.8374 27.1672 14.1139 27.1066 14.013C27.0678 13.9614 27.0289 13.9046 26.99 13.8456C27.0296 13.8882 27.132 14.0519 27.1888 14.1199C27.2008 14.1393 27.2128 14.1573 27.2232 14.1745L27.1888 14.1199C27.206 14.1408 27.2195 14.1528 27.2247 14.149C27.1089 13.9846 26.9825 13.8112 26.86 13.6415C26.7695 13.4958 26.6753 13.3388 26.5722 13.1759C26.6866 13.3418 26.7905 13.5003 26.6537 13.2454L26.9586 13.7462C26.7792 13.3284 27.1492 14.0474 26.9945 13.6565C26.5842 13.0032 26.5004 12.9487 26.0916 12.2969C25.9982 12.1945 26.0505 12.2969 26.0176 12.2812C25.9055 12.1011 25.827 11.9613 25.6095 11.6451C25.6685 11.7595 25.6947 11.8013 25.6058 11.678C25.4234 11.3461 25.4623 11.2662 25.108 10.8125C25.0474 10.746 24.9951 10.7019 24.9323 10.6346C24.8232 10.4739 24.7111 10.3102 24.5907 10.1331L24.7372 10.2586C24.3329 9.63078 24.4353 9.94694 24.0391 9.27126C24.1341 9.37515 24.3762 9.75186 24.3202 9.65395C24.0802 9.20548 24.0967 9.37142 23.8837 9.04553L23.8814 8.95061C23.4322 8.2951 22.9367 7.57158 22.4396 6.84507C22.4785 6.87796 22.5749 6.99531 22.4747 6.81443C21.8454 5.89881 21.1817 4.82773 20.6196 3.91511L20.3595 3.5967C20.3079 3.51673 20.2795 3.43824 20.3423 3.51972C20.1278 3.16169 20.3072 3.51673 20.1831 3.35827C20.0508 3.16094 20.0321 3.08246 20.1255 3.20131C19.9536 2.96512 19.7264 2.64671 19.4917 2.30737C19.3759 2.13695 19.2563 1.96131 19.1397 1.78939C18.9879 1.55769 18.8392 1.32972 18.7002 1.1167C18.6097 1.24675 18.523 1.37083 18.4416 1.48818C18.4064 1.53676 18.3728 1.5831 18.3399 1.6287C18.3137 1.66308 18.2883 1.69671 18.2644 1.72885L18.3384 1.59656C18.1217 1.89703 18.0551 2.06071 17.9557 2.24309C17.869 2.37539 17.7763 2.51591 17.6866 2.64596L17.7367 2.55926C17.6874 2.63026 17.6373 2.70202 17.588 2.77377L17.6007 2.75434C17.5177 2.86571 17.428 3.00025 17.3309 3.14973C16.712 4.06086 16.0968 5.00039 15.5923 5.65066C15.5422 5.82631 14.9577 6.56553 14.8763 6.78229C14.8195 6.86824 14.7709 6.94224 14.729 7.00876C14.4278 7.39593 14.4472 7.33913 13.9046 8.09628C13.7432 8.32724 13.7148 8.47449 13.5271 8.76823L13.4845 8.74955L13.2588 9.16811L13.0727 9.346L12.8993 9.6233C12.9748 9.51717 13.0712 9.4058 13.0712 9.42972C12.8021 9.86398 12.3484 10.4425 12.3215 10.4395L11.6772 11.4613C11.6772 11.4373 11.7363 11.3372 11.7998 11.2303C11.5733 11.6085 11.737 11.2288 11.4642 11.7019C11.5173 11.6421 11.4627 11.7528 11.4627 11.7685C11.2751 11.9972 10.8992 12.5518 10.6316 12.9688L10.6592 12.8724C10.151 13.6094 9.61431 14.4443 9.05074 15.2769C9.18229 15.0983 9.23237 15.0676 9.21368 15.1267C9.19798 15.1506 9.18229 15.173 9.16584 15.197C9.18079 15.179 9.1935 15.1641 9.20471 15.1514C9.18752 15.1925 9.15239 15.2553 9.10231 15.3322L8.99617 15.4032C8.91396 15.5774 9.18378 15.1581 8.99468 15.5027C8.95806 15.5557 8.9289 15.5946 8.90499 15.6237C8.93189 15.5714 8.93115 15.5595 8.83772 15.6873C8.81978 15.6843 8.85491 15.5983 8.91545 15.4937L8.67328 15.8809C8.64637 15.8951 8.70019 15.8024 8.70019 15.7687C8.62021 15.9407 8.21884 16.3944 8.11046 16.647L8.0843 16.6604C7.5282 17.4968 7.27632 17.8765 6.82337 18.5582C6.83832 18.5799 6.77703 18.683 6.70154 18.8093C6.54682 19.0418 6.38911 19.2802 6.2613 19.4813C5.98848 19.8587 5.69548 20.2623 5.40025 20.7033C5.22983 20.9791 5.25375 20.962 5.26645 20.9649C5.22908 21.0225 5.19096 21.0793 5.15359 21.1361C5.02727 21.2923 4.82771 21.5831 4.97047 21.3342C4.48837 22.0577 4.35458 22.2588 3.76336 23.1871C3.76634 23.1833 3.76933 23.1803 3.77232 23.1766C3.72897 23.2446 3.68114 23.3186 3.6333 23.3904C3.63031 23.3911 3.62882 23.3904 3.62882 23.3874L3.65498 23.3418C3.60789 23.4195 3.55781 23.498 3.50624 23.5772C3.501 23.5847 3.49577 23.5929 3.49054 23.5997L3.60864 23.4031C3.35002 23.7738 3.1512 24.0765 2.97032 24.3591C2.41871 25.1297 1.81777 25.9063 1.48292 26.499L1.51057 26.4511L1.30428 26.7845C1.1675 26.9878 1.03894 27.1806 0.915613 27.3682C0.955227 27.2935 0.997831 27.2105 0.893189 27.3443C0.760145 27.5671 0.635323 27.7651 0.51648 27.9468C0.333358 28.2173 0.163689 28.4677 0 28.7099C0.324389 28.7121 0.635323 28.7144 0.954479 28.7159C1.16974 28.7159 1.39098 28.7129 1.63016 28.7017C2.33126 28.813 4.11764 28.6935 5.0639 28.7652L5.00934 28.7391C5.25375 28.7136 5.30532 28.754 5.48545 28.76C5.46004 28.7398 5.22011 28.7361 5.37184 28.7219C7.44374 28.6905 9.64794 28.76 11.7722 28.7839C12.5488 28.7906 12.2132 28.6479 13.1923 28.7107L12.9142 28.7592C14.4816 28.7009 16.12 28.7615 17.6545 28.7114C17.5633 28.7226 17.5603 28.7376 17.4108 28.7368C17.7352 28.7719 18.6097 28.7383 18.615 28.7099C18.8541 28.7129 18.6703 28.7361 18.8175 28.751C19.1427 28.7719 19.6337 28.7062 19.8064 28.7413C19.8251 28.745 19.784 28.7488 19.7354 28.7518C20.0142 28.7428 20.6218 28.7562 20.4395 28.7196C21.0157 28.7391 21.5412 28.7017 22.0009 28.7256C22.3006 28.68 22.9867 28.7473 23.0824 28.683C23.0413 28.7495 24.0922 28.7368 24.4562 28.7054C24.3344 28.7256 24.7731 28.7263 24.6304 28.754C25.0459 28.7533 25.4271 28.7405 25.3546 28.7062C26.12 28.7861 26.8936 28.6419 27.3249 28.7443C28.5596 28.7084 29.7017 28.6845 30.8124 28.6688C30.7721 28.7353 29.5851 28.6755 29.6322 28.745C30.6861 28.7174 31.2938 28.6606 32.3387 28.6763C32.6093 28.6852 32.1847 28.7054 32.0935 28.7166C33.1459 28.689 34.1281 28.7226 35.0646 28.6867C34.8964 28.6464 35.747 28.6038 35.8509 28.5806C35.5796 28.6628 36.78 28.6008 36.2882 28.7092C36.41 28.7032 36.5617 28.689 36.5341 28.6688C36.7142 28.6748 36.7718 28.6867 36.5886 28.7099C37.2501 28.6935 37.0147 28.6613 37.6141 28.6621C37.6119 28.677 37.4908 28.6822 37.4295 28.6994C37.733 28.671 38.0372 28.6426 38.5439 28.6546C38.5178 28.6621 38.5581 28.6718 38.4699 28.674C39.3138 28.6673 39.9215 28.5993 40.8573 28.6262C40.5762 28.6897 41.1816 28.6471 41.2325 28.7024L41.7452 28.686L41.5397 28.6591C41.9889 28.6598 42.3858 28.6202 42.7722 28.6381L42.4381 28.6606L43.2797 28.6501L42.8036 28.6292C43.258 28.6008 42.755 28.5597 43.3529 28.5746C43.2311 28.5798 43.8022 28.5746 44.0369 28.6075H44.0354C44.2573 28.5903 44.4861 28.5716 44.8187 28.5851C44.9046 28.603 44.7492 28.6456 44.8052 28.6576C45.0242 28.6112 45.8576 28.6449 46.1349 28.5955C46.0422 28.6068 46.0378 28.6359 46.0676 28.6419L46.2515 28.6045C46.4593 28.6165 46.4899 28.6225 46.4563 28.6456C47.0827 28.6524 46.2575 28.5761 47.0005 28.606C46.9422 28.609 46.9698 28.615 46.8487 28.6202C47.5947 28.6359 48.2905 28.5963 48.9759 28.615C49.1785 28.6703 48.3772 28.6284 48.6082 28.6755C49.2039 28.6628 49.8228 28.6494 50.4327 28.6367C50.3804 28.5619 50.3288 28.4887 50.2772 28.4147L50.2795 28.4191ZM39.7271 12.9576L39.7376 12.986L39.4999 12.6347C39.5044 12.6385 39.5104 12.6437 39.5163 12.6497C39.5866 12.7536 39.6569 12.856 39.7264 12.9576H39.7271ZM43.0495 17.81C43.0495 17.81 43.0443 17.8025 43.0413 17.7988C43.0435 17.8018 43.045 17.804 43.0472 17.807C43.0472 17.8078 43.0487 17.8093 43.0487 17.81H43.0495ZM29.624 23.7529C29.7107 23.6131 29.7623 23.584 29.7167 23.6781C29.9618 23.2297 30.4357 22.4142 30.7653 21.9874L30.7197 22.0824C30.9604 21.74 30.9006 21.6376 31.1443 21.3327L31.1106 21.3992C31.6174 20.6458 32.1264 19.781 32.5562 19.2331C32.5749 19.0889 33.0652 18.4924 33.0241 18.396C33.341 17.9834 33.2737 18.1165 33.6923 17.5185C33.8014 17.3571 33.8037 17.2449 33.9263 17.0371L33.9674 17.0566L34.1041 16.7554L34.2439 16.638L34.356 16.4414C34.3052 16.5154 34.2357 16.5917 34.232 16.573C34.4054 16.265 34.7245 15.8659 34.7484 15.8711L35.1677 15.1476C35.1715 15.1663 35.1341 15.2381 35.0938 15.3136C35.238 15.0445 35.1506 15.3225 35.3217 14.9847C35.2836 15.025 35.315 14.9451 35.312 14.9324C35.3643 14.8711 35.4346 14.7739 35.5116 14.6603C35.531 14.6319 35.5512 14.602 35.5714 14.5721L35.5983 14.5272C35.6102 14.5407 35.6214 14.5542 35.6319 14.5661C35.6229 14.5721 35.6162 14.5803 35.611 14.5908L35.6185 14.6035L35.6476 14.6476C35.6925 14.7134 35.7373 14.7799 35.7829 14.8472C35.8756 14.9809 35.9697 15.117 36.0654 15.2553C36.2568 15.5318 36.4526 15.8166 36.6507 16.1021C36.5229 15.8876 36.5998 15.904 36.7187 16.07L36.7247 16.1641C36.8233 16.2568 36.62 15.9773 36.8016 16.1813C36.9429 16.3996 36.854 16.357 36.7575 16.2419L36.9481 16.4945C36.9467 16.5177 36.8988 16.4609 36.8727 16.4549C36.9698 16.5453 37.138 16.9333 37.286 17.0596L37.2845 17.082C37.6806 17.653 37.8608 17.9124 38.1829 18.3781C38.2233 18.3639 38.3399 18.5522 38.4625 18.6733C38.6844 19.0253 38.9161 19.426 39.2002 19.84C39.4147 20.1203 39.2869 19.9058 39.396 20.0232C39.3796 20.0658 39.6628 20.4784 39.4947 20.2788C39.837 20.7736 39.9312 20.9111 40.3834 21.5248C40.3497 21.4478 40.3034 21.3671 40.3408 21.4C40.423 21.5106 40.5037 21.669 40.4776 21.663L40.4536 21.6354C40.9791 22.3111 41.4672 23.3306 41.9134 23.8501L41.8887 23.8209L42.1032 24.1019C42.1481 24.1617 42.1563 24.1685 42.1727 24.1864L42.2258 24.2462C42.2594 24.3015 42.2325 24.2753 42.2071 24.2529C42.1795 24.2283 42.157 24.2156 42.1541 24.2312C42.1653 24.2417 42.1757 24.2514 42.1847 24.2604C42.1742 24.2664 42.1556 24.2701 42.1346 24.2731C42.1055 24.2761 42.107 24.2776 42.0479 24.2783C41.9014 24.2768 41.7646 24.2761 41.6309 24.2753C41.364 24.2709 41.1091 24.2649 40.8124 24.2851C40.3273 24.1737 39.0911 24.2933 38.4363 24.2215L38.4744 24.2477C38.3055 24.2731 38.2696 24.2327 38.1448 24.2268C38.1627 24.2469 38.3287 24.2507 38.2233 24.2649C36.7897 24.2963 35.2642 24.2268 33.794 24.2028C33.2565 24.1961 33.489 24.3389 32.8111 24.2761L33.0032 24.2275C31.9186 24.2858 30.7848 24.2253 29.7227 24.2753C29.7862 24.2641 29.7877 24.2492 29.8916 24.2499C29.7765 24.232 29.5612 24.232 29.3781 24.2402C29.3878 24.226 29.3983 24.2111 29.408 24.1961L29.5246 23.9345C29.5605 23.8792 29.6068 23.8426 29.5754 23.9069C29.7451 23.6729 29.5605 23.8792 29.621 23.7536L29.624 23.7529ZM11.8903 18.7645C11.8925 18.7869 11.8671 18.8467 11.7871 18.9797C11.7744 18.9812 11.7587 18.9805 11.7527 18.9678L11.8903 18.7645ZM28.2427 23.4756C28.1941 23.4008 28.1336 23.3074 28.0701 23.2088C28.0678 23.1796 28.0955 23.1946 28.1351 23.2566C28.1052 23.2282 28.1926 23.3777 28.2427 23.4756ZM27.8414 22.8627C27.7995 22.8007 27.7636 22.7476 27.7404 22.7139C27.7614 22.7446 27.7905 22.7879 27.8414 22.8627ZM18.7196 8.72638C18.7076 8.72488 18.6949 8.72264 18.6822 8.72114L18.6994 8.69573L18.7196 8.72638ZM18.6254 8.8056C18.6336 8.83475 18.6486 8.87437 18.6718 8.92519L18.6695 8.93865L18.674 8.93117C18.6972 8.98275 18.7286 9.04404 18.7704 9.12252L19.0231 9.43196L19.0657 9.55753L18.8803 9.27873C18.958 9.45438 19.047 9.54034 19.1367 9.64273C19.1397 9.67936 19.1598 9.73243 19.1972 9.80194L19.4663 10.0927C19.47 10.1473 19.3258 9.97535 19.4566 10.2026C19.5822 10.3386 19.411 10.0224 19.5934 10.2654C19.6711 10.4417 19.6195 10.4089 19.7645 10.5815C19.7668 10.6174 19.7316 10.5838 19.6763 10.5142C19.8026 10.669 19.9716 10.9493 20.059 11.015C20.1353 11.2019 20.435 11.5711 20.37 11.5906C20.417 11.6347 20.6046 11.8552 20.7063 12.0069C20.4581 11.7707 21.077 12.5809 20.9589 12.5533C21.1525 12.7214 21.4732 13.282 21.7452 13.6266C21.7273 13.6094 21.6914 13.575 21.6735 13.5406C21.8035 13.7499 21.8252 13.8209 21.9007 13.9607C21.9665 13.9555 22.187 14.2686 22.3305 14.4219C22.4493 14.7051 22.1735 14.306 22.1802 14.4144C22.2109 14.3763 22.5061 14.827 22.483 14.7201C22.5801 14.9324 22.5779 14.8957 22.6026 15.0213C22.6855 15.0153 22.7304 15.1947 22.8724 15.33C23.0256 15.629 22.8627 15.4391 23.0824 15.7336C23.1594 15.8921 22.9591 15.6327 22.9591 15.6327C23.1624 15.9459 23.0996 15.7501 23.1691 15.7994C23.4262 16.1641 23.2483 15.9937 23.3081 16.1365C23.4726 16.3615 23.631 16.5124 23.7431 16.6873C23.7439 16.7053 23.7633 16.7404 23.7282 16.7075C23.9255 16.9303 24.2081 17.437 24.4413 17.6941C24.451 17.7181 24.4547 17.7315 24.4547 17.739C24.4472 17.6777 24.4659 17.6553 24.4883 17.6538C24.581 17.7936 24.6872 17.8952 24.6916 17.967C24.6363 17.8803 24.6199 17.881 24.584 17.8474L24.6931 17.9856C24.7365 18.1456 24.5474 17.7951 24.5152 17.816C24.7163 18.0933 24.9704 18.4035 25.102 18.6307C25.09 18.7039 24.7522 18.1269 24.9062 18.4438L24.6999 18.094C24.8038 18.3967 24.5698 17.8847 24.655 18.1695C24.9353 18.624 25.0033 18.6554 25.2829 19.1083C25.3718 19.1935 25.2956 19.0522 25.3845 19.1375C25.8412 19.7429 25.605 19.7048 25.966 20.1338C26.0729 20.2362 26.1566 20.2481 26.345 20.5979L26.2239 20.5157C26.5019 20.9515 26.4534 20.7183 26.718 21.1914C26.6469 21.1234 26.4795 20.8618 26.5169 20.9313C26.6716 21.249 26.6798 21.1212 26.8271 21.3469L26.8159 21.4209C27.1305 21.8716 27.4788 22.3694 27.8272 22.8687C27.7965 22.8485 27.7262 22.77 27.7913 22.8978C27.9714 23.1542 28.153 23.4307 28.3309 23.7103C28.4408 23.8859 28.5514 24.0623 28.6605 24.2372C28.4871 24.2484 28.313 24.2686 28.2345 24.2455C28.2211 24.2417 28.2517 24.238 28.2861 24.235C28.0947 24.2447 27.6687 24.2305 27.7958 24.2679C27.3974 24.2484 27.0334 24.2858 26.715 24.2619C26.5079 24.3075 26.0325 24.2402 25.9668 24.3045C25.9952 24.238 25.2679 24.2507 25.016 24.2821C25.1005 24.2619 24.797 24.2611 24.8957 24.2335C24.6079 24.2342 24.3448 24.2469 24.3949 24.2813C23.865 24.2014 23.3298 24.3456 23.0316 24.2432C22.1773 24.2791 21.3865 24.303 20.6181 24.3187C20.6458 24.2522 21.4679 24.312 21.4343 24.2425C20.7056 24.2701 20.2847 24.3269 19.562 24.3112C19.3751 24.3023 19.6681 24.2821 19.7316 24.2709C19.0036 24.2985 18.3235 24.2649 17.6754 24.3008C17.792 24.3411 17.2031 24.3837 17.1313 24.4069C17.3189 24.3254 16.4885 24.3867 16.8286 24.2783C16.7449 24.2843 16.6387 24.2985 16.6582 24.3187C16.5333 24.3127 16.4937 24.3008 16.6201 24.2776C16.1626 24.294 16.3248 24.3262 15.9107 24.3254C15.9122 24.3105 15.9959 24.3052 16.0385 24.2881C15.8285 24.3165 15.6177 24.3449 15.2672 24.3329C15.2859 24.3254 15.2575 24.3157 15.3188 24.3135C14.735 24.3202 14.3142 24.3882 13.6669 24.3613C13.8613 24.2978 13.4427 24.3404 13.4076 24.2851L13.0525 24.3015L13.1953 24.3284C12.8844 24.3277 12.6093 24.3673 12.3425 24.3493L12.5734 24.3269L11.9912 24.3374L12.3208 24.3583C12.0061 24.3867 12.3544 24.4278 11.9403 24.4129C12.024 24.4076 11.6294 24.4129 11.4672 24.38H11.468C11.314 24.3972 11.1563 24.4159 10.9261 24.4024C10.8663 24.3845 10.9739 24.3411 10.935 24.3299C10.7833 24.3763 10.207 24.3426 10.0149 24.3919C10.0792 24.3807 10.0822 24.3516 10.0613 24.3456L9.93421 24.383C9.78995 24.371 9.76903 24.365 9.7922 24.3419C9.35868 24.3351 9.92973 24.4114 9.41549 24.3815C9.45585 24.3785 9.43642 24.3733 9.52088 24.3673C9.26301 24.3591 9.01337 24.365 8.76895 24.371C8.50062 24.3763 8.33619 24.3822 8.17997 24.3725C8.21585 24.3411 8.22631 24.3389 8.22631 24.3471C8.30106 24.3314 8.44456 24.3478 8.40869 24.312C8.36683 24.3135 8.32497 24.3157 8.28237 24.3172C8.31974 24.2529 8.35711 24.1872 8.39523 24.1214L8.6389 23.7282C8.80184 23.4674 8.96553 23.211 9.13296 22.9741L9.05896 23.0727C9.04551 22.9531 9.3669 22.6863 9.52387 22.3881C9.48276 22.4591 9.49995 22.5017 9.50518 22.4785C9.76977 22.11 10.0082 21.6997 10.373 21.1167L10.3423 21.1981C10.5067 20.9866 10.7452 20.6211 10.9141 20.3872C10.9455 20.305 11.0404 20.1704 10.9604 20.2369C11.5539 19.5642 11.8604 18.7966 12.3821 18.1957C12.329 18.2742 12.2707 18.3923 12.3126 18.3295L12.6743 17.7622C12.616 17.7868 12.6078 17.8235 12.5069 17.9259C12.5375 17.8444 12.631 17.6777 12.7244 17.5402C12.5734 17.8033 12.7715 17.5686 12.8604 17.4714C12.8395 17.4834 12.8552 17.44 12.8403 17.443C13.0877 17.1859 12.8163 17.3556 13.119 16.9811V17.0125C13.2125 16.8585 13.2857 16.7083 13.3986 16.5506C13.4763 16.5065 13.3067 16.7195 13.3268 16.7479C13.4771 16.5214 13.5653 16.2613 13.7357 16.0797C13.6759 16.1798 13.5914 16.3204 13.5316 16.4213C13.72 16.2254 13.7275 16.1925 13.8456 16.0318L13.8336 16.0475L14.1087 15.6776L14.0324 15.768C14.1378 15.4287 14.4046 15.1835 14.6057 14.7664C14.4091 15.1715 14.5952 14.8479 14.6132 14.9017C14.6887 14.812 14.8 14.6723 14.7821 14.7208C14.8733 14.5213 15.0086 14.4368 15.1356 14.1543C15.1551 14.1513 15.2664 13.9629 15.2694 14.0235C15.4182 13.7835 15.2111 14.0646 15.2096 14.0347C15.4122 13.6475 15.8308 13.223 16.1245 12.6676C16.3801 12.2438 16.4153 12.116 16.6193 11.7677L16.703 11.6444C16.7658 11.5906 16.6447 11.8126 16.6447 11.8126C16.8144 11.5988 16.9265 11.4276 17.0558 11.2056C17.0371 11.2557 17.076 11.2176 17.1328 11.1615C17.2449 10.9889 17.1664 11.018 17.3361 10.805C17.3234 10.8528 17.3114 10.9164 17.2688 11.0076C17.3899 10.7975 17.5103 10.5875 17.6358 10.3707C17.6941 10.3296 17.5828 10.5172 17.5461 10.6002C17.6949 10.3603 17.937 9.98207 17.9527 9.88789L17.8675 9.99478C17.8937 9.97161 17.8899 10.0194 17.8608 10.0718C17.7509 10.2893 17.6538 10.3528 17.6343 10.3558L17.727 10.2026C17.5543 10.3072 17.3361 10.805 17.1306 11.1002L17.1575 10.9709L18.6224 8.80486L18.6254 8.8056ZM17.002 11.2766C16.9676 11.3103 16.9325 11.3327 16.931 11.311L17.1298 11.0173L17.002 11.2766ZM15.9974 12.6908C15.9929 12.7155 15.9735 12.7648 15.9175 12.8709L15.833 12.9337L15.9974 12.6908ZM45.6356 21.7057C45.6356 21.7057 45.6349 21.7057 45.6341 21.7057L45.4353 21.4112C45.4391 21.4134 45.4443 21.4164 45.4495 21.4209C45.5101 21.5128 45.5721 21.6077 45.6356 21.7057ZM43.6198 18.674C43.5577 18.5926 43.4965 18.5118 43.4344 18.4274C43.498 18.5066 43.5592 18.5888 43.6198 18.674ZM41.6062 15.7097C41.5815 15.6791 41.5569 15.6484 41.5314 15.6178C41.5576 15.6492 41.5808 15.6768 41.6017 15.7015C41.6032 15.7045 41.6054 15.7067 41.6069 15.7097H41.6062ZM38.5977 11.3006L38.4774 11.1219C38.4737 11.1122 38.4707 11.1055 38.4707 11.1017C38.5342 11.1959 38.5977 11.2908 38.6583 11.3813C38.6389 11.3559 38.6187 11.3282 38.5977 11.3006ZM38.1328 10.5718L38.0559 10.4754C38.088 10.5255 38.1246 10.5815 38.1627 10.6398C38.1612 10.6428 38.1575 10.6436 38.1523 10.6406L37.8645 10.2153L37.9953 10.3737C38.0402 10.438 38.0858 10.5038 38.1328 10.5718ZM37.866 10.1891L37.8197 10.1502L37.1186 9.11355C37.3376 9.4327 37.5782 9.77728 37.866 10.1891ZM44.4868 19.8625C44.4935 19.8894 44.5048 19.9133 44.5197 19.9417C44.4681 19.867 44.4158 19.7885 44.3665 19.7085C44.3986 19.7429 44.4479 19.8101 44.4861 19.8625H44.4868ZM43.9539 19.1614C43.9128 19.1307 43.85 19.062 43.6983 18.8063L43.7222 18.8198C43.7969 18.9289 43.8732 19.0425 43.9539 19.1614ZM42.1675 16.5012L42.1638 16.4975C42.0883 16.3906 42.0135 16.2778 41.9343 16.1612C41.9709 16.203 42.0322 16.2875 42.1675 16.5012ZM37.0363 8.83625C37.0775 8.89156 37.1096 8.93939 37.1358 8.982C37.1029 8.93342 37.0692 8.88408 37.0363 8.83625ZM35.9473 7.35333C36.0736 7.54019 36.1977 7.72331 36.3196 7.9027L36.2224 7.75321C36.2224 7.75321 36.2299 7.76068 36.2336 7.76442C36.2695 7.813 36.3068 7.86159 36.345 7.91017C36.3659 7.94156 36.3883 7.97595 36.4122 8.01332C36.4092 8.02378 36.3793 7.99463 36.3666 7.98791C36.4033 8.03126 36.4414 8.0761 36.478 8.11721C36.5983 8.3093 36.7433 8.54325 36.8913 8.74506C36.8226 8.64864 36.786 8.62846 36.8076 8.65313C36.8241 8.67779 36.8413 8.7032 36.8577 8.72862L35.6431 6.93252C35.6446 6.92878 35.6469 6.9243 35.6476 6.92131C35.6835 6.97214 35.7186 7.02296 35.7537 7.07379C35.8188 7.16796 35.883 7.26139 35.9466 7.35408L35.9473 7.35333ZM35.5983 6.84881C35.6125 6.86899 35.6259 6.88842 35.6394 6.90786C35.6371 6.91085 35.6356 6.91384 35.6334 6.91683L35.6028 6.87123L35.6043 6.866L35.602 6.86974L35.5953 6.86002L35.5661 6.90487C35.5661 6.90487 35.5661 6.90188 35.5661 6.89963C35.5766 6.88244 35.5878 6.86525 35.5983 6.84806V6.84881ZM33.3911 10.0381C33.3888 10.0434 33.3866 10.0486 33.3851 10.0531C33.3799 10.0591 33.3746 10.0665 33.3694 10.0725L33.3911 10.0374V10.0381ZM29.0178 16.7995C29.0178 16.7995 29.0178 16.8025 29.0178 16.8047L29.0141 16.8092L29.0186 16.7995H29.0178ZM25.984 12.2558C25.984 12.2558 25.9787 12.2506 25.9757 12.2468L25.8576 12.0816C25.7687 11.9531 25.7029 11.8499 25.6521 11.7625L25.984 12.2558ZM22.4284 6.85554C22.4889 6.94598 22.5398 7.02296 22.5727 7.07229C22.5428 7.02745 22.5009 6.96466 22.4277 6.85628L22.4284 6.85554ZM8.85491 15.6828C8.84968 15.6873 8.84519 15.6895 8.8422 15.691C8.8579 15.6723 8.86089 15.6716 8.85491 15.6828Z" fill="#EAE9E6"/>
<path d="M35.2775 28.6895L35.0974 28.6977C35.0847 28.6962 35.0757 28.6939 35.0675 28.6917C35.063 28.6977 34.9636 28.7044 34.8687 28.7096C35.0533 28.7074 35.2977 28.7194 35.2768 28.6895H35.2775Z" fill="#EAE9E6"/>
<path d="M13.4746 8.74984L13.4843 8.75432L13.5284 8.67285L13.4746 8.74984Z" fill="#EAE9E6"/>
<path d="M42.7901 17.3391L42.6025 17.0356C42.684 17.1672 42.7431 17.2629 42.7901 17.3391Z" fill="#EAE9E6"/>
<path d="M34.8694 28.71C34.8433 28.71 34.8179 28.7115 34.7947 28.7122C34.6191 28.7204 34.7386 28.7174 34.8694 28.71Z" fill="#EAE9E6"/>
<path d="M44.0367 28.6128C43.9388 28.6195 43.8431 28.6255 43.7422 28.6322C43.9051 28.6352 44.0322 28.636 44.0367 28.6128Z" fill="#EAE9E6"/>
<path d="M43.3154 28.6317C43.4784 28.6399 43.6152 28.6384 43.7415 28.6317C43.6077 28.6287 43.45 28.625 43.3154 28.6317Z" fill="#EAE9E6"/>
<path d="M36.9817 8.67808C36.9817 8.67808 36.9757 8.67808 36.9697 8.67285L37.0325 8.75656L36.9817 8.67808Z" fill="#EAE9E6"/>
<path d="M36.9087 8.58887C36.9356 8.62848 36.9588 8.66212 36.9707 8.67183L36.9087 8.58887Z" fill="#EAE9E6"/>
<path d="M36.7769 8.41406L36.9077 8.58896C36.8658 8.52618 36.8142 8.44844 36.7769 8.41406Z" fill="#EAE9E6"/>
<path d="M38.4541 10.8909L38.4833 10.9065C38.472 10.8953 38.4616 10.8894 38.4541 10.8909Z" fill="#EAE9E6"/>
<path d="M38.5066 10.9202L38.4834 10.9067C38.5701 10.9949 38.7749 11.4023 38.8945 11.5338C38.7928 11.3776 38.6598 11.1295 38.5066 10.9202Z" fill="#EAE9E6"/>
<path d="M48.2802 28.674L48.4058 28.6396L48.0171 28.6509L48.2802 28.674Z" fill="#EAE9E6"/>
<path d="M18.1282 9.75054C18.1813 9.58835 18.2194 9.56667 18.2717 9.38953C18.3457 9.26994 18.4219 9.19519 18.4234 9.22509C18.4406 9.17726 18.555 9.05019 18.5714 8.97021C18.4376 9.10027 18.3068 9.29161 18.1969 9.50987C18.1588 9.54724 18.1768 9.49791 18.176 9.48296C18.1028 9.63319 18.031 9.81407 18.1282 9.75054Z" fill="#EAE9E6"/>
<path d="M17.2127 11.1174C17.2374 11.0763 17.256 11.0412 17.271 11.0083L17.2104 11.107C17.2104 11.107 17.2127 11.1129 17.2127 11.1174Z" fill="#EAE9E6"/>
<path d="M20.3646 11.5943C20.3646 11.5943 20.3684 11.5906 20.3706 11.5898C20.3579 11.5779 20.3527 11.5756 20.3646 11.5943Z" fill="#EAE9E6"/>
<path d="M17.1664 11.1763L17.1006 11.2742C17.132 11.2301 17.1522 11.2002 17.1664 11.1763Z" fill="#EAE9E6"/>
<path d="M24.4561 17.74C24.4524 17.7878 24.2453 17.4903 24.4875 17.8558C24.4673 17.8043 24.4598 17.7691 24.4561 17.74Z" fill="#EAE9E6"/>
<path d="M17.1932 11.106C17.1932 11.1239 17.1864 11.1441 17.167 11.177C17.1819 11.153 17.1969 11.1299 17.2111 11.1074C17.2103 11.0977 17.2059 11.0932 17.1932 11.106Z" fill="#EAE9E6"/>
<path d="M24.9414 24.2334L25.3331 24.2394C25.2232 24.2379 25.0812 24.2356 24.9414 24.2334Z" fill="#EAE9E6"/>
<path d="M34.356 16.4437C34.3754 16.4153 34.3918 16.3877 34.4008 16.3652L34.356 16.4437Z" fill="#EAE9E6"/>
<path d="M26.4966 24.2334C26.5668 24.2483 26.6408 24.2566 26.7171 24.2618C26.7335 24.2588 26.7522 24.2558 26.7627 24.2513L26.4966 24.2334Z" fill="#EAE9E6"/>
<path d="M28.2876 24.2357C28.3078 24.2349 28.3265 24.2334 28.3399 24.2319C28.3257 24.2327 28.3063 24.2342 28.2876 24.2357Z" fill="#EAE9E6"/>
<path d="M17.8423 10.0302L17.8699 9.99512C17.8625 10.0011 17.8535 10.0123 17.8423 10.0302Z" fill="#EAE9E6"/>
<path d="M17.5318 24.3029L17.6567 24.2947C17.6656 24.2962 17.6716 24.2985 17.6776 24.3007C17.6806 24.2947 17.7493 24.288 17.8151 24.2828C17.6873 24.285 17.5184 24.273 17.5326 24.3029H17.5318Z" fill="#EAE9E6"/>
<path d="M17.6768 24.3029H17.6793L17.6768 24.3003V24.3029Z" fill="#EAE9E6"/>
<path d="M35.0943 15.3154C35.0824 15.3379 35.0689 15.364 35.0532 15.3954C35.0659 15.3692 35.0809 15.3423 35.0943 15.3154Z" fill="#EAE9E6"/>
<path d="M33.9763 17.0631L33.9673 17.0586L33.9404 17.1176L33.9763 17.0631Z" fill="#EAE9E6"/>
<path d="M12.9009 17.4336C12.9009 17.4336 12.8815 17.4508 12.8628 17.4717C12.8703 17.4672 12.8815 17.4568 12.9009 17.4336Z" fill="#EAE9E6"/>
<path d="M13.8472 16.0318C13.8853 15.9824 13.9324 15.9211 13.9974 15.8359L13.8472 16.0318Z" fill="#EAE9E6"/>
<path d="M14.6148 14.9328C14.6185 14.9148 14.6163 14.9073 14.6148 14.9014L14.6133 14.9036L14.6148 14.9335V14.9328Z" fill="#EAE9E6"/>
<path d="M17.8145 24.2821C17.8324 24.2821 17.8503 24.2806 17.866 24.2798C17.9871 24.2716 17.9049 24.2746 17.8145 24.2821Z" fill="#EAE9E6"/>
<path d="M11.4702 24.3793C11.5382 24.3726 11.6048 24.3666 11.6743 24.3599C11.5614 24.3569 11.4732 24.3562 11.4702 24.3793Z" fill="#EAE9E6"/>
<path d="M11.9696 24.3611C11.8567 24.3529 11.7625 24.3544 11.6743 24.3611C11.767 24.3641 11.8761 24.3678 11.9696 24.3611Z" fill="#EAE9E6"/>
<path d="M17.9234 10.0774C17.9234 10.0774 17.9211 10.0721 17.9219 10.0669L17.8853 10.1297L17.9226 10.0774H17.9234Z" fill="#EAE9E6"/>
<path d="M17.9587 10.0049C17.94 10.0325 17.9243 10.0557 17.9229 10.0669L17.9587 10.0049Z" fill="#EAE9E6"/>
<path d="M17.9585 10.0048C17.9876 9.96147 18.025 9.90915 18.0347 9.87402L17.9585 10.0048Z" fill="#EAE9E6"/>
<path d="M16.876 11.5889V11.6143C16.8805 11.6031 16.8805 11.5948 16.876 11.5889Z" fill="#EAE9E6"/>
<path d="M16.8771 11.6347V11.6138C16.848 11.696 16.6245 11.9225 16.5767 12.0376C16.6514 11.9329 16.7837 11.7879 16.8771 11.6339V11.6347Z" fill="#EAE9E6"/>
<path d="M8.46706 24.3527L8.71595 24.3415L8.53358 24.3184C8.4992 24.3296 8.48724 24.3415 8.46631 24.3527H8.46706Z" fill="#EAE9E6"/>
<path d="M38.4767 10.968C38.4588 10.9381 38.4349 10.9015 38.4072 10.8604L38.4767 10.968Z" fill="#EAE9E6"/>
<path d="M38.4077 10.8605L38.2298 10.5839C38.2104 10.5697 38.3195 10.7267 38.4077 10.8605Z" fill="#EAE9E6"/>
<path d="M43.7946 18.7839C43.743 18.7054 43.7071 18.6905 43.6787 18.665C43.7153 18.7039 43.7579 18.7592 43.8058 18.8272C43.8103 18.8265 43.8073 18.813 43.7946 18.7839Z" fill="#EAE9E6"/>
<path d="M38.4766 10.9678C38.4863 10.9835 38.4952 10.9984 38.5005 11.0081C38.4938 10.9947 38.4938 10.9947 38.4885 10.9865L38.4766 10.9678Z" fill="#EAE9E6"/>
<path d="M45.2656 21.0005L45.6266 21.5446C45.5691 21.4452 45.4943 21.3152 45.6625 21.5603C45.2215 20.8645 45.7425 21.7113 45.2664 21.0005H45.2656Z" fill="#EAE9E6"/>
<path d="M44.1624 19.3187C44.0316 19.1386 44.0002 19.0953 44.1407 19.3157C44.3403 19.6043 44.1482 19.306 44.1624 19.3187Z" fill="#EAE9E6"/>
<path d="M35.9435 7.19232L35.9794 7.21101C35.8254 6.98827 35.9719 7.21325 35.9435 7.19232Z" fill="#EAE9E6"/>
<path d="M60.0418 13.6579C59.8377 12.6787 59.5313 11.8162 59.2368 11.1487C59.0948 10.7182 58.8175 10.1561 58.5858 9.74429C58.7031 9.97974 58.6359 9.91396 58.5357 9.73532C58.3623 9.42065 58.2577 9.26668 58.2009 9.18521C58.1455 9.10374 58.1351 9.09477 58.1246 9.0858C58.0962 9.07384 58.0947 9.03946 57.6575 8.46094C57.4086 8.12684 56.9586 7.57224 56.3539 6.96532C56.0572 6.66111 55.6962 6.34644 55.3449 6.04522C54.9943 5.74998 54.6318 5.44428 54.2693 5.14007C52.8238 3.91875 51.3999 2.70566 50.87 2.24225C50.793 2.1847 50.7145 2.1264 50.6353 2.06735L50.5164 1.97467L50.3154 1.81172C50.0306 1.56582 49.7391 1.38867 49.4095 1.35354C49.0814 1.31468 48.7353 1.39839 48.4759 1.58899C48.2091 1.77211 48.0372 2.04941 47.9707 2.32596L47.9946 2.21011C47.9378 2.34764 47.8944 2.60401 47.9064 2.96278C47.9064 3.18776 47.9064 3.46207 47.9056 3.76852C47.9034 4.3149 47.9004 4.97937 47.8967 5.64683C47.8892 6.98251 47.8817 8.33462 47.8914 8.79505L47.8989 8.67172C47.9325 9.47447 47.8735 9.36534 47.8555 9.99842C47.9153 9.91471 47.9497 10.6031 47.9542 10.8662L47.9415 10.8557C47.9512 11.2519 48.0035 12.1481 48.0118 12.8021L47.9789 12.7767C48.014 13.3215 47.9998 14.347 48.0028 14.7387C47.9938 15.3232 47.9669 16.114 47.9609 16.9264C47.8271 16.7299 47.7165 16.5707 47.647 16.475C47.6664 16.5647 47.8002 16.7209 47.8002 16.8158C47.6762 16.6873 47.6635 16.5961 47.5932 16.5497C47.6224 16.4488 47.3921 16.2194 47.3847 16.0639L47.3189 16.0474L47.2927 15.96C46.8181 15.3463 47.1739 15.8262 46.7979 15.2537C46.5685 14.9293 46.41 14.8082 46.3054 14.6124C46.3233 14.64 46.3495 14.7282 46.2822 14.649C46.3054 14.6124 46.1043 14.439 46.1095 14.3754C46.049 14.2947 45.8696 14.0219 45.8868 14.1437C45.8778 14.0824 45.7239 13.8358 45.8412 13.9658C45.7874 13.8836 45.7403 13.8006 45.6902 13.7491L45.7485 13.8619C45.5557 13.5921 45.4892 13.4187 45.327 13.2677L45.3778 13.3813C45.2642 13.2199 45.1678 13.0846 45.1678 12.9904L45.2963 13.1489C45.1102 12.8776 44.9959 12.7154 44.818 12.5053L44.8718 12.5868C44.6304 12.3282 43.5667 10.8423 43.3298 10.6136L43.3784 10.7601L43.1975 10.5553C43.2274 10.5762 43.3552 10.5852 43.3814 10.6098C43.0361 10.1083 41.2886 7.59391 41.0053 7.12676C40.8999 6.93093 41.0382 7.0565 41.0449 7.05501C40.8812 6.84124 40.9425 6.984 40.8177 6.79266C40.7885 6.73735 40.852 6.78518 40.8767 6.81134C40.8162 6.73062 40.7758 6.64616 40.7556 6.65064C40.8132 6.76276 40.7399 6.74781 40.7422 6.8106L40.58 6.56469L40.6151 6.55722C40.5792 6.50265 40.4469 6.46976 40.2989 6.22087C40.0373 5.81052 39.7301 5.37925 39.4611 4.96965C39.482 4.96442 39.5493 5.04365 39.6165 5.12213C39.5807 5.06757 39.5201 4.98759 39.4984 4.92929C39.5358 5.04664 39.3631 4.77233 39.4028 4.85679C39.2555 4.71851 38.677 3.75282 38.1463 2.87085L37.2898 4.16093C37.3765 4.31116 37.4385 4.41505 37.4617 4.44869C37.4572 4.45467 37.3877 4.35003 37.2793 4.17587L37.2554 4.21175C37.357 4.37619 37.4243 4.47933 37.4385 4.48531C37.5147 4.62508 37.3907 4.49653 37.4841 4.6632C37.5693 4.76934 37.7001 4.89641 37.7696 5.03767L37.7621 5.03917C37.943 5.37402 38.1359 5.48688 38.2988 5.79483L38.2674 5.77091C38.3182 5.88452 38.4782 6.06764 38.5828 6.26272C38.5537 6.20667 38.5455 6.14612 38.6239 6.25375C38.7465 6.47724 38.8639 6.60729 38.9438 6.77696L39.0746 6.90403C39.5657 7.63876 41.5726 10.4992 42.0771 11.2302L42.0524 11.2048C42.8283 12.314 44.3874 14.6131 45.2163 15.7417C45.3075 15.9413 45.4824 16.1835 45.6005 16.3756C45.543 16.2635 45.5886 16.2844 45.6424 16.3666C46.0251 16.9376 45.6887 16.3905 46.0931 16.9578C46.4982 17.5035 47.7741 19.4221 48.381 20.3624C48.2517 20.3355 48.162 20.3213 48.1463 20.331C48.0432 20.1666 47.94 20.0029 47.9146 19.9491C47.9243 20.0021 48.1216 20.3295 48.2405 20.494L48.2988 20.4992C48.5634 20.8849 48.3339 20.6061 48.5821 20.9888C48.5634 21.0299 48.3309 20.6801 48.1291 20.3699C48.304 20.6532 48.4587 20.9477 48.5671 21.0396C48.7218 21.3117 48.5096 21.0351 48.6979 21.361C48.8519 21.5815 49.0724 21.8588 49.2196 22.1309L49.2114 22.1294C49.5814 22.7826 49.8759 23.0659 50.2115 23.6638L50.1614 23.6085C50.2735 23.8238 50.5546 24.2102 50.7691 24.5907C50.7085 24.4815 50.6734 24.3762 50.8184 24.5952C51.0688 25.0309 51.2728 25.3067 51.4455 25.6319L51.666 25.9092C51.9762 26.3942 52.5009 27.2127 53.3178 28.4916C53.3926 28.6082 53.5219 28.6792 53.6609 28.6792H54.3112C54.4412 28.6792 54.5631 28.6164 54.6386 28.5102L54.6401 28.5087C54.9061 28.3959 55.1461 28.2001 55.0997 27.8689C55.1177 27.8443 55.1356 27.8181 55.1535 27.7934C55.1834 27.8473 55.2171 27.9033 55.2604 27.9639C55.2477 27.9086 55.2126 27.8405 55.1707 27.7688C55.7799 26.9204 56.4302 26.0138 57.0483 25.1527C57.4564 24.5765 57.8473 24.0525 58.1881 23.5278C58.5215 23.0188 58.751 22.5696 58.9049 22.2766L58.8765 22.3439C59.2002 21.7123 59.547 20.8811 59.8206 19.9289C60.0919 18.9767 60.272 17.9003 60.3139 16.8143C60.3468 15.7283 60.2503 14.6363 60.0418 13.6579ZM58.7614 16.9922L58.7734 16.8113C58.7936 17.135 58.7375 18.1492 58.5125 19.1344C58.3033 20.1232 57.9183 21.059 57.8182 21.3453C57.8727 21.2683 57.9221 21.1883 57.9721 21.1084C57.9161 21.2735 57.8466 21.4342 57.7823 21.5964C57.8077 21.5456 57.7756 21.3513 57.7957 21.2862C57.6866 21.5142 57.4863 21.9455 57.1761 22.4567C57.0946 22.586 57.0087 22.7221 56.9197 22.8633C56.8241 23.0016 56.7247 23.1451 56.6223 23.2924C56.4033 23.5966 56.1723 23.9172 55.9384 24.2431C55.4697 24.8934 54.9869 25.5616 54.5563 26.1588C54.4809 26.2619 54.4083 26.3614 54.3388 26.4578C53.7947 25.6147 53.261 24.7835 52.681 23.9411C52.6765 23.9105 52.6945 23.9382 52.7199 23.9643C52.5016 23.6683 52.3222 23.3963 52.1227 23.1279C52.0823 23.0435 52.0853 23.0113 52.0808 22.9814C52.0808 23.0285 51.0195 21.4709 51.0083 21.4417L50.9462 21.4559C50.7422 21.1577 50.9432 21.3311 50.7437 21.0628C50.6001 21.0015 50.4387 20.5993 50.337 20.5283C50.3438 20.5268 50.2541 20.3901 50.2817 20.3841C50.216 20.3684 50.1786 20.251 50.1106 20.1718C50.0792 20.1479 50.1151 20.2025 50.1188 20.2331L49.973 20.0462C49.9334 19.9618 49.9424 19.9282 50.0029 20.0089C49.8923 19.8362 49.6382 19.4468 49.3347 18.9856C49.3422 18.8376 49.3444 18.6725 49.3482 18.5103C49.328 18.6455 49.3153 18.7876 49.3086 18.946C49.2884 18.9161 49.269 18.8862 49.2488 18.8556C49.2548 18.8242 49.2622 18.7995 49.2675 18.7659L49.3003 18.7913L49.2959 18.4789C49.3123 18.1029 49.2742 17.9295 49.3071 17.9549L49.3026 18.4692C49.3123 18.0924 49.3295 18.3555 49.3482 18.4998C49.3512 18.3421 49.3557 18.1889 49.3654 18.064C49.3527 17.9893 49.3519 18.1186 49.3445 18.1769C49.3332 17.9743 49.3026 17.6918 49.3175 17.4444C49.3205 17.0587 49.3706 17.4197 49.3743 16.969C49.3998 14.5922 49.4379 12.2893 49.4304 9.88706C49.4439 9.83249 49.4439 9.89752 49.4498 9.96703C49.4409 9.24202 49.4334 8.60221 49.4259 7.94072C49.4409 7.7576 49.4611 7.70827 49.4745 7.65371C49.4611 7.70827 49.4536 6.79864 49.4506 5.86733C49.4513 4.93677 49.4521 3.98827 49.4521 3.95538L49.3923 3.90904C49.3923 3.55326 49.4087 3.50094 49.4244 3.45609C49.4319 3.43367 49.4394 3.41274 49.4439 3.35593C49.4461 3.32753 49.4468 3.29091 49.4476 3.24008V3.16758C49.4476 3.16758 49.4468 3.16534 49.4461 3.16384C49.405 3.15338 49.402 3.12199 49.4184 3.11152C49.4356 3.09881 49.4551 3.11077 49.4543 3.08162C49.4573 3.08835 49.4805 3.09508 49.4775 3.12796C49.4842 3.0734 49.4932 3.12497 49.5037 3.119C49.5141 3.11077 49.5081 3.10479 49.5089 3.08835L49.5306 3.09582L49.5365 3.09807L49.5769 3.12871L49.6696 3.20121C49.8004 3.32977 49.8176 3.3791 49.6614 3.25503C50.1285 3.65117 51.4806 4.79999 52.841 5.95627C53.1825 6.24479 53.5241 6.5333 53.853 6.8106C54.1796 7.08715 54.5085 7.35772 54.7589 7.58644C55.0272 7.81291 55.2417 8.0491 55.4368 8.23447C55.6185 8.43179 55.7672 8.59324 55.8711 8.7061C55.7919 8.56633 55.5205 8.30099 55.4615 8.15823C55.7044 8.37798 55.7762 8.51999 55.8972 8.6052C55.9144 8.75319 56.3435 9.16578 56.413 9.41916L56.5049 9.46849L56.5767 9.61424C56.993 10.192 57.0356 10.2638 57.064 10.3176C57.0924 10.3721 57.1126 10.4103 57.4041 10.9679C57.5767 11.29 57.6993 11.5299 57.8025 11.7362C57.9071 11.9298 57.9714 12.1025 58.0327 12.2871C58.014 12.2206 57.999 12.1137 58.0671 12.2669C58.0521 12.2893 58.1067 12.4044 58.156 12.53C58.2024 12.6556 58.2517 12.7894 58.2464 12.8394C58.3175 13.0121 58.452 13.5973 58.4572 13.3918C58.4572 13.4471 58.4871 13.6026 58.5043 13.7072C58.517 13.8148 58.5185 13.8702 58.4759 13.7154C58.5095 13.8941 58.535 14.0675 58.5723 14.1938L58.5424 13.9621C58.6105 14.2618 58.6374 14.498 58.659 14.7073C58.6889 14.9151 58.7084 15.0975 58.7472 15.2948L58.7502 15.0661C58.7861 15.4323 58.8138 15.7403 58.7569 15.8867C58.7472 15.7612 58.7427 15.6356 58.7233 15.5115C58.7577 16.1177 58.7659 16.484 58.7614 16.9922Z" fill="#EAE9E6"/>
<path d="M92.1479 1.61133C92.112 1.90731 92.109 2.41781 92.103 2.90066C92.1374 2.52844 92.1516 2.13304 92.1479 1.61133Z" fill="#EAE9E6"/>
<path d="M92.1023 2.91011C92.1023 2.91011 92.1023 2.91534 92.1023 2.91758C92.1023 2.91085 92.1023 2.90637 92.1023 2.90039C92.1023 2.90413 92.1023 2.90712 92.1016 2.91011H92.1023Z" fill="#EAE9E6"/>
<path d="M88.118 18.9502C88.0425 19.0444 87.9566 19.152 87.8691 19.2604C87.9521 19.1565 88.0366 19.0511 88.118 18.9502Z" fill="#EAE9E6"/>
<path d="M93.5413 18.727C93.5084 17.4355 93.5667 17.6111 93.5846 16.5931C93.5248 16.7269 93.4912 15.6199 93.4867 15.1976L93.4994 15.2133C93.4897 14.5765 93.4374 13.134 93.4292 12.0823L93.4621 12.1234C93.4269 11.2467 93.4419 9.59783 93.4381 8.96774C93.4516 7.52593 93.5084 5.30304 93.4658 3.3754L93.5585 2.13017L93.5495 1.94779C93.5495 1.94779 92.4239 -0.0575875 92.1839 2.48819L92.151 2.44783L92.1555 2.95085C92.1391 3.55479 92.1772 3.83433 92.1443 3.79322L92.1481 2.9658C92.1391 3.57272 92.1219 3.14893 92.1032 2.91722C92.1002 3.1706 92.0957 3.41651 92.086 3.61832C92.0987 3.73791 92.0995 3.53012 92.1069 3.43594C92.1182 3.76257 92.1488 4.21702 92.1339 4.61465C92.1309 5.23578 92.0808 4.65427 92.0778 5.37854C92.0524 9.20243 92.0143 12.9067 92.0217 16.7717C92.0083 16.8592 92.0083 16.7546 92.0023 16.6432C92.0113 17.8084 92.0188 18.8414 92.0262 19.902C92.0113 20.1935 91.9918 20.2757 91.9784 20.361C91.9904 20.3206 91.9978 21.6054 92.0016 22.9919C92.0023 23.3649 92.0031 23.7521 92.0038 24.0682C92.0038 24.0877 92.0031 24.1011 92.0016 24.1019H92.0001L92.0591 24.2603C92.0599 24.3717 91.9918 24.0742 92.0068 24.1691C92.0344 24.294 92.0427 24.353 92.0427 24.3754C92.0225 24.3269 91.9933 24.1781 91.9993 24.2693C91.9971 24.2461 91.9821 24.2043 91.9799 24.131C91.9821 24.1826 91.9799 24.1908 91.9769 24.1863C91.9724 24.1774 91.9687 24.1437 91.9634 24.1482C91.9575 24.1669 91.9619 24.1811 91.9634 24.2192C91.9537 24.2103 91.9425 24.1968 91.9291 24.1796C91.9238 24.1273 91.941 24.1004 91.95 24.1086C91.9477 24.1011 91.9455 24.0922 91.9418 24.0817L91.938 24.066L91.9358 24.0585C91.932 24.0488 91.944 24.0772 91.9134 24.0032C91.7429 23.5884 91.5389 23.0921 91.3124 22.542C90.858 21.441 90.3138 20.1233 89.7682 18.8018C88.674 16.1581 87.5685 13.4995 87.1514 12.53C87.2239 12.7931 87.4967 13.3858 87.5423 13.6347C87.2994 13.1317 87.2359 12.8731 87.1118 12.6578C87.1028 12.4299 86.6566 11.5195 86.5684 11.0979L86.4645 10.9679L86.3831 10.701C85.3935 8.455 86.1461 10.1928 85.3165 8.18143C84.8411 7.06102 84.5556 6.53034 84.3119 5.90399C84.3493 6.01386 84.3837 6.1484 84.2723 5.90548C84.2798 5.87185 84.1893 5.67452 84.0944 5.46524C84.0473 5.35985 83.9995 5.25147 83.9591 5.16103C83.9404 5.1132 83.924 5.07059 83.909 5.03397C83.8844 4.96894 83.8657 4.91512 83.8552 4.8785C83.622 4.33287 82.8978 2.5876 83.0921 3.1863C82.9576 2.79838 82.3394 1.29079 82.7296 2.16455C82.5853 1.81549 82.4433 1.47242 82.3192 1.1727C82.2804 1.17045 82.2452 1.1727 82.2138 1.18017L82.32 1.21754L82.4104 1.44626C82.3783 1.37077 82.3476 1.29677 82.32 1.23249C82.1324 1.21007 81.9844 1.1727 81.8521 1.15625C81.7205 1.13607 81.6039 1.13533 81.4784 1.11963C81.5284 1.13009 81.5785 1.14355 81.6286 1.16074C81.5733 1.14728 81.5202 1.13458 81.4701 1.12262C81.3289 1.22726 81.216 1.31396 81.1316 1.29827C81.2026 1.25118 81.2743 1.20783 81.3483 1.16821C81.3461 1.16971 81.3431 1.17045 81.3408 1.17195C80.9589 1.3618 80.7197 1.75346 80.7257 2.1795C80.7287 2.38953 80.7317 2.60554 80.7347 2.82977L80.7362 2.25499C80.7474 3.04055 80.7803 5.44207 80.8139 7.83313C80.8401 9.5485 80.8677 11.2519 80.9013 11.7624L80.9432 11.2923L80.9783 12.169C80.9776 12.0719 80.864 11.7953 80.8565 11.6847C80.8602 13.6273 80.8931 23.332 80.8647 25.0616C80.8415 25.7627 80.7982 25.1879 80.7915 25.1797C80.7997 25.6065 80.8109 25.6984 80.8191 25.7739C80.8236 25.812 80.8273 25.8464 80.8296 25.9159C80.8303 26.0348 80.8311 26.2112 80.8326 26.5154C80.8251 26.8667 80.7997 26.4578 80.7937 26.256C80.7989 26.8226 80.784 27.3637 80.8042 27.3899C80.8191 26.6708 80.8707 26.9377 80.9043 26.6342L80.9021 27.4781C80.9013 27.8189 81.089 28.1328 81.3902 28.2935C81.7796 28.5013 82.2609 28.4041 82.539 28.0618C83.3978 27.0049 84.2715 25.9294 85.1027 24.9069C85.1027 24.9383 84.9061 25.1991 84.7095 25.4607C84.8366 25.3045 85.025 25.0646 85.1558 24.9233C84.93 25.1498 85.5579 24.3911 85.3658 24.6064C86.0198 23.6706 87.0042 22.5719 87.5947 21.7564C87.5939 21.6436 87.9886 19.3063 87.922 19.2525C88.0065 19.1494 88.0902 19.047 88.1642 18.9573C89.3362 21.8043 90.4648 24.5466 90.9021 25.6102C91.1973 26.2702 91.5015 26.9788 91.8102 27.7098C91.9717 28.0917 92.376 28.3197 92.7834 28.2434C92.7968 28.2412 92.811 28.2382 92.8245 28.2352C93.2386 28.1508 93.5361 27.786 93.5368 27.363C93.5405 25.6513 93.5458 23.6146 93.5495 21.7968C93.5495 20.3296 93.5488 19.0597 93.5488 18.5275L93.5413 18.7263V18.727ZM87.7247 19.4835V19.556C87.2658 20.1487 87.5932 19.6748 87.135 20.2458C87.0812 20.2526 87.499 19.7241 87.8697 19.2607C87.5304 19.6733 87.1739 20.0694 87.0692 20.2645C86.7411 20.645 87.0685 20.192 86.6753 20.6517C86.413 20.994 86.0856 21.4567 85.7567 21.8274V21.8162C84.9697 22.7266 84.643 23.2827 83.9217 24.1123L83.986 24.0129C83.7274 24.2977 83.276 24.9009 82.8215 25.4278C82.9478 25.2851 83.0592 25.1872 82.8073 25.5056C82.6511 25.6909 82.521 25.8457 82.4007 25.9877C82.3932 25.9966 82.3828 26.0064 82.3813 25.9862C82.376 26.0108 82.3671 26.0422 82.3521 26.0796C82.3484 26.0848 82.3439 26.0901 82.3289 26.108C82.3192 23.551 82.2856 14.6707 82.2774 12.3492L82.2834 12.4598C82.2781 10.7167 82.2699 8.03045 82.2617 5.3748C82.2594 5.26119 82.2572 5.14832 82.255 5.0377C82.2983 5.13338 82.3394 5.22456 82.379 5.31127C82.4328 5.42936 82.4852 5.54223 82.533 5.64687C82.8073 6.28742 83.0599 6.8779 83.2849 7.40185C83.5159 8.04914 83.8889 8.9199 84.1557 9.58438C84.0159 9.2114 84.0922 9.32726 84.211 9.61427C85.0481 11.6294 84.291 9.74059 85.1558 11.7714C85.661 12.9366 86.8427 15.7664 88.0028 18.5671C88.0551 18.6934 88.1067 18.8197 88.1582 18.946C88.0147 19.115 87.8376 19.334 87.7247 19.4835Z" fill="#EAE9E6"/>
<path d="M110.911 0.746094C111.117 0.781971 111.337 0.798414 111.627 0.79692C111.463 0.760295 111.179 0.754316 110.911 0.746094Z" fill="#EAE9E6"/>
<path d="M110.906 0.745605H110.901C110.901 0.745605 110.907 0.745605 110.911 0.746353H110.906V0.745605Z" fill="#EAE9E6"/>
<path d="M111.356 27.3361C111.43 27.3347 111.506 27.3317 111.577 27.3257C111.51 27.3287 111.433 27.3324 111.356 27.3361Z" fill="#EAE9E6"/>
<path d="M111.212 27.3688L111.183 27.4158C110.767 27.448 111.084 27.3927 110.677 27.4106C110.654 27.374 111.028 27.3516 111.357 27.3359C111.06 27.3426 110.763 27.3269 110.644 27.3725C110.365 27.3673 110.674 27.3254 110.337 27.3224C110.099 27.3426 109.786 27.3912 109.51 27.3792L109.515 27.3725C108.845 27.359 108.495 27.4682 107.883 27.4532L107.948 27.4383C107.732 27.4248 107.309 27.4697 106.918 27.4614C107.029 27.4644 107.127 27.4883 106.893 27.5018C106.444 27.4951 106.14 27.5302 105.811 27.5138L105.499 27.5623C105.03 27.5818 104.145 27.6177 103.121 27.6595C102.61 27.6819 102.064 27.7066 101.518 27.7305L101.109 27.7492L100.916 27.7582L100.898 27.7604C100.872 27.7634 100.846 27.7664 100.822 27.7694C100.82 27.7507 100.819 27.7328 100.817 27.7156L100.815 27.6879C100.815 27.6177 100.813 27.5489 100.813 27.4816C100.81 27.1326 100.807 26.8097 100.805 26.5189C100.801 25.9374 100.798 25.4822 100.796 25.1945L100.803 25.2513C100.786 23.4126 100.786 19.9586 100.753 17.5444C100.893 17.5549 101.035 17.5616 101.177 17.5586C101.184 17.5721 101.176 17.5713 101.167 17.578C101.259 17.5638 101.341 17.5691 101.425 17.5541C101.448 17.5691 101.455 17.5885 101.461 17.6027C101.448 17.5758 101.924 17.5728 101.931 17.5803L101.937 17.5212C102.028 17.5205 101.964 17.5885 102.047 17.5743C102.08 17.4906 102.186 17.5833 102.215 17.5384C102.215 17.5452 102.256 17.5474 102.254 17.5736C102.266 17.528 102.295 17.5631 102.322 17.5511C102.331 17.5384 102.315 17.5377 102.307 17.5242L102.366 17.5085C102.39 17.5227 102.396 17.5496 102.37 17.5549C102.525 17.5713 103.269 17.6147 103.436 17.5923C103.414 17.5579 103.363 17.581 103.343 17.5272C103.387 17.4973 103.408 17.5377 103.428 17.5063C103.445 17.5863 103.525 17.5257 103.558 17.6065L103.571 17.5609L103.592 17.5885C103.787 17.5414 103.636 17.5653 103.808 17.5758C103.908 17.5691 103.955 17.5063 104.011 17.5295C104.003 17.5295 103.981 17.5011 104.006 17.4899C104.011 17.5295 104.075 17.4614 104.088 17.5018C104.113 17.4966 104.195 17.5018 104.167 17.4472C104.181 17.4742 104.254 17.4854 104.21 17.5093C104.235 17.5108 104.259 17.519 104.277 17.507L104.246 17.4921C104.329 17.4839 104.374 17.5265 104.428 17.4771L104.397 17.4555C104.447 17.4517 104.488 17.448 104.508 17.5018L104.457 17.5183C104.539 17.5168 104.589 17.513 104.658 17.4846L104.633 17.4831C104.721 17.4293 105.179 17.3852 105.26 17.3179L105.222 17.2761L105.292 17.241C105.284 17.241 105.258 17.377 105.252 17.3628C105.4 17.359 106.174 17.3262 106.311 17.3546C106.367 17.3777 106.321 17.4211 106.32 17.4278C106.388 17.4121 106.35 17.3837 106.407 17.3875C106.423 17.3949 106.404 17.4203 106.395 17.4263C106.421 17.4211 106.444 17.436 106.445 17.4166C106.414 17.4017 106.427 17.3493 106.414 17.3157L106.488 17.3202L106.485 17.3531C106.501 17.3538 106.527 17.2634 106.599 17.2813C106.722 17.2955 106.854 17.2843 106.977 17.2918C106.975 17.3112 106.95 17.3232 106.924 17.3344C106.94 17.3351 106.965 17.3306 106.98 17.3441C106.951 17.3097 107.032 17.3209 107.009 17.3067C107.099 17.2268 107.215 17.3 107.295 17.2454C107.302 17.1737 107.465 16.0099 107.465 15.924C107.49 15.9255 107.515 15.927 107.522 15.9344C107.516 15.9143 107.468 15.9045 107.442 15.9165L107.437 15.9621C107.378 15.9785 107.423 15.9352 107.365 15.9382C107.362 15.9008 107.415 15.8926 107.463 15.8888C107.42 15.8844 107.378 15.8574 107.361 15.8986C107.321 15.8829 107.365 15.853 107.318 15.8365C107.283 15.8477 107.239 15.8844 107.199 15.8619V15.8552C107.105 15.8163 107.054 15.912 106.968 15.8739L106.977 15.8612C106.946 15.8395 106.885 15.8687 106.83 15.8455C106.846 15.853 106.86 15.8799 106.826 15.8844C106.763 15.8604 106.72 15.8844 106.672 15.8552L106.628 15.8918C106.406 15.8844 105.53 15.9367 105.307 15.9427L105.316 15.9367C104.977 15.9554 104.279 15.9524 103.929 16.0024C103.874 15.9666 103.799 15.9748 103.743 15.9643C103.774 15.9793 103.763 16.0047 103.739 16.0039C103.566 15.9995 103.727 16.0286 103.553 16.0443C103.352 16.0779 102.583 16.0398 102.405 16.0092C102.309 16.0622 102.189 16.0219 102.095 16.0555L102.105 16.0428C102.004 16.063 101.434 16.0137 101.316 16.0323L101.332 16.0398C101.23 16.0727 101.244 16.0144 101.163 15.9965C101.174 16.0563 101.086 16.0899 101.052 16.0944L101.054 16.0817C101.004 16.0914 100.89 16.1437 100.807 16.1519L100.81 16.119C100.79 16.1288 100.767 16.1347 100.742 16.1377C100.768 15.8014 100.762 15.3813 100.771 15.0547C100.755 15.2587 100.727 15.1892 100.729 15.0293C100.733 14.0173 100.707 14.7752 100.69 14.0898C100.727 14.0912 100.765 14.0927 100.802 14.0912C100.807 14.1047 100.801 14.104 100.795 14.1107C100.86 14.0965 100.916 14.1017 100.974 14.0868C100.99 14.1017 100.995 14.1211 100.999 14.1353C100.99 14.1084 101.321 14.1054 101.326 14.1129L101.33 14.0539C101.393 14.0531 101.348 14.1211 101.406 14.1069C101.428 14.0232 101.502 14.1159 101.523 14.0711C101.523 14.0778 101.55 14.08 101.549 14.1062C101.558 14.0606 101.578 14.0957 101.596 14.0838C101.603 14.0711 101.591 14.0703 101.586 14.0569L101.627 14.0412C101.644 14.0554 101.647 14.0823 101.629 14.0875C101.737 14.104 102.254 14.1473 102.369 14.1249C102.355 14.0905 102.319 14.1137 102.305 14.0599C102.336 14.03 102.35 14.0703 102.363 14.0389C102.375 14.1189 102.431 14.0584 102.454 14.1391L102.463 14.0935L102.478 14.1211C102.612 14.0741 102.508 14.098 102.628 14.1084C102.697 14.1017 102.73 14.0389 102.769 14.0621C102.763 14.0621 102.748 14.0337 102.766 14.0225C102.769 14.0621 102.813 13.9941 102.822 14.0344C102.839 14.0292 102.896 14.0344 102.877 13.9799C102.887 14.0068 102.938 14.018 102.907 14.0419C102.924 14.0434 102.941 14.0516 102.953 14.0397L102.932 14.0247C102.989 14.0165 103.02 14.0591 103.059 14.0098L103.037 13.9881C103.071 13.9844 103.1 13.9806 103.114 14.0344L103.079 14.0509C103.136 14.0494 103.171 14.0457 103.219 14.0172L103.201 14.0158C103.262 13.9619 103.58 13.9178 103.636 13.8506L103.61 13.8087L103.658 13.7736C103.652 13.7736 103.635 13.9096 103.63 13.8954C103.733 13.8917 104.27 13.8588 104.365 13.8872C104.403 13.9104 104.372 13.9537 104.372 13.9604C104.419 13.9447 104.392 13.9163 104.432 13.9201C104.443 13.9276 104.429 13.953 104.423 13.9589C104.441 13.9537 104.457 13.9687 104.459 13.9492C104.437 13.9343 104.446 13.882 104.437 13.8483L104.488 13.8528L104.486 13.8857C104.497 13.8864 104.515 13.796 104.565 13.8139C104.651 13.8281 104.743 13.8169 104.828 13.8244C104.826 13.8438 104.808 13.8558 104.79 13.867C104.802 13.8678 104.82 13.8633 104.83 13.8767C104.809 13.8423 104.866 13.8536 104.849 13.8394C104.912 13.7594 104.993 13.8326 105.048 13.7781C105.053 13.7063 105.166 12.5426 105.166 12.4566C105.184 12.4581 105.201 12.4596 105.206 12.4671C105.202 12.4469 105.168 12.4372 105.15 12.4491L105.147 12.4947C105.106 12.5112 105.137 12.4678 105.097 12.4708C105.095 12.4334 105.132 12.4252 105.164 12.4215C105.135 12.417 105.106 12.3901 105.094 12.4312C105.066 12.4155 105.097 12.3856 105.064 12.3691C105.04 12.3804 105.009 12.417 104.982 12.3946V12.3878C104.916 12.349 104.881 12.4446 104.821 12.4065L104.828 12.3938C104.806 12.3721 104.764 12.4013 104.726 12.3781C104.737 12.3856 104.746 12.4125 104.723 12.417C104.679 12.3931 104.648 12.417 104.616 12.3878L104.585 12.4245C104.431 12.417 103.822 12.4693 103.668 12.4753L103.674 12.4693C103.438 12.488 102.954 12.485 102.71 12.5351C102.673 12.4992 102.621 12.5074 102.581 12.497C102.603 12.5119 102.595 12.5373 102.578 12.5366C102.458 12.5321 102.57 12.5612 102.449 12.5769C102.309 12.6106 101.775 12.5725 101.651 12.5418C101.585 12.5949 101.502 12.5545 101.437 12.5881L101.443 12.5754C101.373 12.5956 100.977 12.5463 100.896 12.565L100.907 12.5725C100.836 12.6053 100.845 12.547 100.789 12.5291C100.797 12.5889 100.736 12.6225 100.712 12.627V12.6143C100.702 12.6173 100.685 12.6255 100.668 12.6345C100.662 10.6515 100.694 7.30226 100.72 6.38141C100.662 5.76029 100.706 4.9852 100.669 4.37678L100.682 4.43807C100.677 4.24972 100.677 3.80723 100.679 3.25562C100.68 2.97982 100.682 2.67636 100.684 2.36393C100.686 2.28022 100.688 2.19426 100.691 2.11055C100.76 2.11653 101.956 2.12998 102.207 2.124L102.096 2.11578C102.814 2.08887 102.716 2.14642 103.281 2.16885C103.207 2.10831 103.823 2.0799 104.058 2.07691L104.049 2.08962C104.403 2.08214 105.205 2.0373 105.79 2.03431L105.767 2.0672C106.255 2.0358 107.17 2.05823 107.521 2.05748C108.322 2.07766 109.557 2.14493 110.628 2.11055L111.319 2.20921L111.421 2.20099C111.421 2.20099 112.547 1.08431 111.134 0.832427L111.157 0.800287L110.878 0.802529C110.542 0.783843 110.386 0.820468 110.41 0.78758L110.869 0.795055C110.532 0.783096 110.768 0.7674 110.897 0.750208C110.756 0.745724 110.62 0.740492 110.508 0.730028C110.441 0.741987 110.556 0.744229 110.608 0.751703C110.427 0.76142 110.174 0.79057 109.954 0.773379C109.608 0.7674 109.932 0.720311 109.529 0.713584C107.404 0.67098 105.346 0.615669 103.198 0.605205C103.15 0.591004 103.208 0.592499 103.27 0.586519C102.621 0.589509 102.05 0.592499 101.458 0.595489C101.295 0.579792 101.251 0.558864 101.202 0.54541C101.212 0.5484 101.183 0.550642 101.123 0.552885C101.046 0.553632 100.931 0.555127 100.787 0.556622C100.333 0.555127 99.6996 0.552885 99.015 0.549895C99.0165 1.27043 99.0172 2.06047 99.0187 2.67711C99.0164 3.04186 99.015 3.30196 99.015 3.31766L99.0792 3.35503C99.08 3.94252 99.006 3.5262 99.0217 4.06959C99.1121 4.28186 99.012 4.97174 99.0606 5.15935C99.0531 5.15487 99.0508 5.42095 99.0224 5.40451C99.0718 5.48598 99.0336 5.67807 99.0463 5.8455C99.0598 5.90604 99.0613 5.80065 99.0755 5.75506L99.0927 6.13924C99.077 6.28948 99.0478 6.32685 99.0426 6.16316C99.0247 7.16772 98.9783 11.9887 99.0022 13.0702C99.0396 12.9312 99.0142 12.5971 99.0725 12.4701C99.1054 12.7563 99.0613 12.8909 99.0957 13.0172C99.009 13.1271 99.0748 13.6458 98.9873 13.8625L99.0366 13.9447L99.0067 14.0868C99.0576 15.3447 99.0314 14.3745 99.0202 15.489C99.0277 16.1243 99.0934 16.4315 99.0718 16.7835C99.077 16.723 99.1024 16.6198 99.1144 16.7716C99.071 16.8 99.145 17.2163 99.1017 17.2978C99.1069 17.4614 99.1017 17.9921 99.1607 17.8127C99.1316 17.9032 99.1196 18.3763 99.0934 18.0945C99.0919 18.2545 99.083 18.4092 99.0957 18.5236L99.1121 18.3188C99.1211 18.8577 99.0747 19.1522 99.1286 19.5027L99.1517 19.3031C99.1555 19.6253 99.16 19.8951 99.1017 20.0214L99.0837 19.6903C99.0852 20.2247 99.0889 20.5476 99.1203 20.9931L99.1218 20.8339C99.1801 21.4019 99.228 24.3715 99.3012 24.8947L99.3468 24.6541L99.3849 25.104C99.3849 25.0509 99.2377 24.8873 99.2526 24.8424C99.2549 25.4463 99.2631 27.4069 99.2713 29.256C100.274 29.2172 101.251 29.1798 102.053 29.1484C102.65 29.1267 103.118 29.1125 103.343 29.1103C103.733 29.1185 103.416 29.1738 103.411 29.1805C103.885 29.1469 103.614 29.1282 104.017 29.117C104.127 29.1208 103.995 29.1506 103.934 29.1589C104.11 29.1469 104.275 29.1551 104.287 29.1357C104.066 29.129 104.157 29.0737 104.062 29.0438L104.58 29.0288L104.559 29.0624C104.675 29.0587 104.848 28.9623 105.357 28.9601C106.216 28.9414 107.148 28.895 108.012 28.8696C107.999 28.8898 107.818 28.9085 107.637 28.9264C107.753 28.9227 107.93 28.9115 108.037 28.9212C107.827 28.8943 108.398 28.8846 108.234 28.8756C108.862 28.7717 109.684 28.8136 110.239 28.7381C110.285 28.6641 111.379 27.4584 111.375 27.3725C111.549 27.3673 111.721 27.3628 111.774 27.3673C111.729 27.3486 111.388 27.3523 111.207 27.3702L111.212 27.3688Z" fill="#EAE9E6"/>
<path d="M99.0764 16.7803C99.0764 16.7863 99.0757 16.7922 99.0757 16.7967C99.0757 16.7915 99.0757 16.7855 99.0764 16.7803Z" fill="#EAE9E6"/>
<path d="M107.495 15.8823C107.486 15.8823 107.475 15.8838 107.464 15.8846C107.474 15.8853 107.485 15.8861 107.495 15.8823Z" fill="#EAE9E6"/>
<path d="M105.19 12.4136C105.183 12.4136 105.176 12.4151 105.168 12.4158C105.176 12.4166 105.183 12.4173 105.19 12.4136Z" fill="#EAE9E6"/>
<path d="M122.572 0C122.453 0.0583002 122.292 0.201809 122.137 0.3356C122.278 0.254129 122.413 0.152478 122.572 0Z" fill="#EAE9E6"/>
<path d="M122.134 0.337836L122.131 0.340711L122.138 0.334961L122.133 0.337836H122.134Z" fill="#EAE9E6"/>
<path d="M114.56 29.9589C114.597 29.9237 114.64 29.8841 114.682 29.8438C114.64 29.8811 114.597 29.9192 114.56 29.9589Z" fill="#EAE9E6"/>
<path d="M114.759 6.9469L114.78 7.01118C114.423 7.33931 114.626 7.05678 114.306 7.3707C114.272 7.46039 114.133 7.58447 113.993 7.70331C113.923 7.76311 113.852 7.82215 113.793 7.87223C113.754 7.9096 113.719 7.94249 113.686 7.97239C113.644 8.01425 113.61 8.05012 113.587 8.07853C113.587 8.06956 113.272 8.35433 113.265 8.32369C113.215 8.43356 112.952 8.6249 112.766 8.81176C112.712 8.87978 112.837 8.76617 112.907 8.72207L112.535 9.08308L112.585 9.13466C112.723 9.30507 112.73 9.35291 112.544 9.16156C112.901 9.55173 113.933 10.6811 114.971 11.8172C115.785 12.7059 116.608 13.5969 116.92 13.9145C116.869 13.8076 116.664 13.6223 116.635 13.5094C116.82 13.6611 116.863 13.7695 116.959 13.8241C116.957 13.9444 117.296 14.215 117.353 14.4004L117.435 14.4191L117.492 14.5237C118.235 15.248 117.672 14.6807 118.288 15.3586C118.655 15.742 118.877 15.884 119.061 16.1157C119.031 16.0836 118.973 15.979 119.076 16.0716C119.061 16.1157 119.348 16.3198 119.362 16.396C119.457 16.491 119.75 16.8138 119.694 16.6688C119.723 16.7413 119.979 17.0336 119.802 16.8804C119.89 16.9775 119.97 17.0762 120.044 17.1367L119.942 17.0029C120.25 17.3221 120.381 17.5269 120.617 17.7048L120.523 17.5703C120.706 17.7616 120.861 17.9215 120.889 18.0337L120.69 17.8461C120.99 18.1667 121.174 18.3581 121.447 18.607L121.359 18.5105C121.538 18.6615 122.044 19.1683 122.553 19.6735C122.68 19.7999 122.807 19.9262 122.929 20.0473C122.988 20.1056 123.046 20.1631 123.103 20.2184C123.121 20.2319 123.138 20.2453 123.154 20.258C123.223 20.3104 123.293 20.3612 123.343 20.3903C123.343 20.3918 123.343 20.3941 123.343 20.3941L123.352 20.3903C123.357 20.3761 123.361 20.3604 123.362 20.3433L123.434 20.3941L123.402 20.4479C123.417 20.4359 123.314 20.3978 123.287 20.3881C123.277 20.3859 123.272 20.3836 123.275 20.3821C123.276 20.3836 123.277 20.3844 123.28 20.3874C123.216 20.4479 123.088 20.5675 122.929 20.7162C122.553 21.0623 122.103 21.4756 121.656 21.8867C120.761 22.7081 119.872 23.5176 119.592 23.7523C119.356 23.9347 119.504 23.7389 119.502 23.7321C119.246 23.9863 119.419 23.8697 119.189 24.073C119.122 24.1238 119.178 24.0371 119.209 24.0012C119.113 24.0954 119.01 24.1686 119.016 24.1896C119.152 24.0879 119.138 24.1739 119.215 24.1507L118.92 24.4131L118.909 24.3772C118.843 24.4355 118.809 24.5932 118.51 24.8413C118.016 25.2711 117.498 25.757 117.007 26.1935C117 26.1718 117.093 26.0709 117.187 25.9692C117.122 26.0275 115.588 26.991 115.517 27.0351C115.66 26.9536 115.33 27.2376 115.432 27.1651C115.135 27.5478 114.62 27.9133 114.346 28.2392C114.371 28.3177 114.583 29.764 114.645 29.8275C114.547 29.915 114.448 30.0024 114.413 30.0241C114.453 30.0159 114.652 29.8484 114.746 29.7475L114.729 29.6974C114.952 29.4725 114.804 29.6676 115.031 29.4568C115.071 29.4732 114.866 29.6713 114.683 29.8425C114.853 29.6937 115.04 29.5622 115.077 29.4702C115.246 29.3387 115.094 29.5203 115.295 29.3596C115.421 29.2288 117.01 28.1712 117.181 28.0471L117.183 28.0546C117.588 27.7407 117.717 27.4888 118.09 27.204L118.062 27.2466C118.2 27.1524 118.418 26.9132 118.654 26.7309C118.586 26.7824 118.511 26.8116 118.64 26.6883C118.91 26.4767 119.064 26.3026 119.27 26.1568L119.42 25.9685C120.36 25.1014 124.077 21.6752 125.021 20.8037L124.964 20.8642C125.081 20.7566 125.205 20.643 125.394 20.4696C124.623 19.6496 123.515 18.4709 122.411 17.2982C121.507 16.3392 120.604 15.3892 119.977 14.7532C119.809 14.517 119.53 14.2307 119.332 14.0035C119.434 14.1365 119.374 14.1119 119.286 14.0147C118.663 13.339 119.224 13.9863 118.578 13.3166C118.2 12.9361 117.32 11.9899 116.456 11.0496C115.637 10.1557 114.581 8.99638 114.793 9.19968C114.772 9.18997 114.753 9.17801 114.734 9.16455C114.754 9.12942 114.798 9.08906 114.838 9.05094C114.894 8.99788 114.95 8.9463 115.004 8.89548C115.089 8.81475 115.169 8.73627 115.243 8.65854L115.215 8.70189C115.598 8.32294 117.885 6.29813 118.333 5.86087L118.265 5.91245C118.643 5.51929 118.632 5.61198 118.962 5.33468C118.876 5.3287 119.196 4.98787 119.324 4.86379L119.329 4.87799C119.52 4.68889 119.931 4.23818 120.253 3.93248L120.265 3.96836C120.512 3.69181 121.037 3.23138 121.231 3.04901C121.691 2.64689 122.426 2.05417 122.995 1.47191L123.453 1.1849L123.503 1.12585C123.503 1.12585 123.295 -0.2756 122.324 0.275262L122.313 0.239385L122.159 0.385883C121.958 0.546583 121.899 0.654214 121.888 0.618337L122.149 0.385136C121.953 0.551815 122.072 0.418023 122.13 0.338047C122.049 0.408307 121.97 0.475576 121.899 0.525655C121.872 0.569006 121.937 0.510706 121.971 0.48903C121.878 0.590682 121.759 0.743159 121.624 0.845558C121.428 1.02046 121.572 0.817903 121.343 1.0227C120.132 2.09602 118.949 3.12674 117.75 4.23594C117.712 4.25089 117.745 4.22174 117.776 4.18512C117.417 4.5252 117.104 4.82268 116.777 5.13362C116.675 5.20686 116.634 5.21509 116.597 5.23004C116.634 5.21509 116.184 5.63888 115.719 6.06866C115.486 6.28318 115.25 6.49993 115.071 6.66437C114.89 6.82731 114.767 6.93793 114.758 6.94616L114.759 6.9469Z" fill="#EAE9E6"/>
<path d="M63.7252 1.49414C63.661 1.67801 63.6161 2.00016 63.5728 2.30436C63.6385 2.07266 63.6856 1.82526 63.7252 1.49414Z" fill="#EAE9E6"/>
<path d="M63.5713 2.31067V2.31515C63.5713 2.31067 63.572 2.30768 63.5728 2.30469L63.5713 2.31067Z" fill="#EAE9E6"/>
<path d="M74.8257 1.68994C74.8369 1.76394 74.8489 1.84915 74.8616 1.93435C74.8518 1.85214 74.8406 1.76842 74.8257 1.68994Z" fill="#EAE9E6"/>
<path d="M62.9061 17.163L62.9741 17.2063C63.0309 17.9381 62.9114 17.4238 62.9854 18.1003C63.0975 18.3581 63.0833 19.2259 63.1647 19.4561C63.1565 19.4516 63.1939 19.7835 63.1625 19.7656C63.226 19.862 63.2208 20.1056 63.2627 20.3134C63.2866 20.3874 63.2701 20.2559 63.2769 20.1976L63.3658 20.6737C63.3793 20.8628 63.3568 20.9129 63.3195 20.7103C63.4121 21.3359 63.6812 23.1604 64.3472 24.9737C64.6873 25.8774 65.1245 26.778 65.6597 27.4933C66.1792 28.2139 66.7846 28.7311 67.1516 28.9643C66.9864 28.8163 66.5701 28.5016 66.4834 28.3282C66.8205 28.601 66.9572 28.7595 67.1426 28.8484C67.1635 28.8888 67.2241 28.9463 67.3063 29.0129C67.3937 29.0749 67.5074 29.1437 67.6247 29.2147C67.7391 29.2902 67.8758 29.347 67.9917 29.4113C68.1083 29.4755 68.2152 29.5323 68.2944 29.5794L68.4432 29.5832L68.6592 29.6856C69.1771 29.8149 69.4724 29.8291 69.6443 29.85C69.8162 29.8575 69.8678 29.8597 69.9126 29.8612C70.0023 29.853 70.0599 29.9247 70.9882 29.8328C71.5278 29.7618 71.9045 29.6071 72.2125 29.48C72.362 29.4053 72.4973 29.338 72.6266 29.273C72.7521 29.2027 72.8717 29.1354 73.0003 29.0637C72.9255 29.1078 72.7133 29.199 72.936 29.054C73.0115 29.0719 73.4988 28.6429 73.6087 28.5838C73.815 28.4291 74.3464 27.8581 74.1207 28.0173C74.2328 27.9388 74.676 27.4178 74.4391 27.746C74.5864 27.5688 74.7186 27.3939 74.8031 27.2556L74.6185 27.4821C75.0535 26.861 75.2837 26.5246 75.4422 26.0814L75.3002 26.3116C75.4982 25.9244 75.6298 25.5963 75.7553 25.461L75.5932 25.8699C75.8891 25.2196 76.0214 24.8197 76.1724 24.2629L76.1081 24.4587C76.1986 24.1014 76.5035 23.0042 76.6762 21.9085C76.8646 20.8135 76.9625 19.7259 76.9587 19.3986L76.8787 19.6931L76.9034 19.1325C76.8952 19.1982 77.0223 19.415 77.0013 19.4688C77.0746 18.8701 77.2383 17.012 77.2667 15.1696C77.3085 13.3264 77.2502 11.5004 77.2457 10.9495C77.2562 10.504 77.3167 10.8673 77.3242 10.8725C77.2868 10.3321 77.2659 10.6408 77.2517 10.1811C77.2547 10.0556 77.2891 10.2058 77.2988 10.2761C77.2854 10.075 77.2921 9.8874 77.2697 9.87245C77.2652 10.1251 77.2024 10.0204 77.1703 10.1281L77.1471 9.5376L77.1844 9.56227C77.1785 9.43072 77.0686 9.23265 77.0536 8.65189C77.011 7.67349 76.9169 6.61362 76.8354 5.63223C76.8586 5.64569 76.8892 5.85123 76.9206 6.05678C76.9101 5.92523 76.887 5.72492 76.8914 5.60233C76.875 5.84226 76.8272 5.19274 76.8287 5.37885C76.6739 4.66729 76.656 3.73224 76.5215 3.10514C76.4378 3.05207 74.9937 1.8928 74.8965 1.90924C74.8726 1.7164 74.8465 1.52431 74.8465 1.469C74.8315 1.51609 74.8741 1.89653 74.913 2.09685L74.9683 2.126C75.046 2.58866 74.9526 2.23811 75.0131 2.69181C74.975 2.72021 74.9145 2.30314 74.8614 1.9369C74.901 2.26726 74.9122 2.60062 74.9735 2.73067C74.9945 3.04385 74.919 2.70078 74.9466 3.07823C74.9907 3.34432 75.0714 3.69263 75.0804 4.00207L75.0722 3.99758C75.1096 4.74951 75.2546 5.13818 75.2747 5.82582L75.2546 5.75332C75.2523 5.99698 75.3271 6.47161 75.3353 6.91035C75.3338 6.78553 75.3555 6.67491 75.3809 6.93726C75.3943 7.44178 75.4452 7.78261 75.4369 8.15185L75.5005 8.5024C75.5528 9.37765 75.6851 11.5452 75.6926 13.7106C75.7142 15.8766 75.5737 18.0315 75.4803 18.8978V18.829C75.354 20.1482 75.0961 22.1746 74.4668 24.0753C74.1491 25.0193 73.738 25.9334 73.2148 26.6405C72.9554 26.994 72.6766 27.302 72.3866 27.5389C72.0959 27.7751 71.7999 27.9448 71.5248 28.0703C71.1653 28.1832 70.6601 28.2923 70.2475 28.2751C70.4717 28.2789 70.3977 28.308 70.2198 28.3163C70.0643 28.3095 69.947 28.3043 69.8573 28.3006C69.7699 28.2893 69.7101 28.2819 69.6682 28.2759C69.5845 28.2669 69.5725 28.2692 69.5606 28.2722C69.5494 28.2729 69.5344 28.2834 69.4507 28.2654C69.3677 28.2467 69.2055 28.2281 68.917 28.1227C68.7511 28.0629 68.5336 27.962 68.2862 27.8125C68.0485 27.6488 67.7749 27.4462 67.5178 27.1674C67.2607 26.8901 67.0058 26.5605 66.7771 26.1883C66.5521 25.8138 66.3443 25.4057 66.165 24.9842C65.4504 23.286 65.1582 21.4376 65.0573 20.7544C64.8734 20.0234 64.8024 19.0869 64.6962 18.3559L64.7179 18.4284C64.6671 18.0352 64.561 16.719 64.5281 15.3796C64.4877 14.0409 64.5064 12.6821 64.5034 12.2194L64.4937 12.3435C64.4683 11.5355 64.5311 11.6461 64.5684 11.0108C64.4989 11.093 64.4825 10.3994 64.4885 10.1356L64.5027 10.146C64.5064 9.74763 64.4899 8.84323 64.5221 8.18474L64.5565 8.21239C64.5482 7.66153 64.6387 6.63156 64.6678 6.23766C64.7538 5.33699 64.9451 3.95423 65.0386 2.75086L65.2351 1.98772L65.2396 1.87411C65.2396 1.87411 64.9698 1.53178 64.6432 1.37856C64.3188 1.22309 63.9241 1.26569 63.6917 2.05723L63.6588 2.02808L63.6244 2.34649C63.5609 2.72619 63.5833 2.90632 63.5504 2.87717L63.6154 2.35546C63.5594 2.7374 63.5721 2.46832 63.5691 2.32033C63.5459 2.48028 63.5243 2.635 63.4981 2.76132C63.5033 2.83831 63.5198 2.7075 63.534 2.64846C63.5228 2.8555 63.5243 3.1455 63.4809 3.39515C63.4361 3.78681 63.4196 3.41533 63.368 3.87276C63.0952 6.28549 62.8919 8.63096 62.8314 11.087C62.8149 11.1424 62.8172 11.0758 62.8127 11.0048C62.8082 11.7455 62.7918 12.4033 62.8082 13.0782C62.791 13.2658 62.7693 13.3167 62.7544 13.3727C62.7701 13.3167 62.7768 14.2487 62.8105 15.2039C62.8314 15.6815 62.8523 16.1651 62.868 16.5321C62.8882 16.8999 62.9016 17.1503 62.9031 17.1675L62.9061 17.163Z" fill="#EAE9E6"/>
</svg>
