<svg width="151" height="42" viewBox="0 0 151 42" fill="none" xmlns="http://www.w3.org/2000/svg">
<path fill-rule="evenodd" clip-rule="evenodd" d="M0.000358582 41.6867H10.0605L0.000358582 31.2319V41.6867Z" fill="#EAE9E6"/>
<path fill-rule="evenodd" clip-rule="evenodd" d="M151 0.966652L140.939 0.966651L151 11.4214L151 0.966652Z" fill="#EAE9E6"/>
<mask id="path-3-inside-1_2140_220" fill="white">
<path fill-rule="evenodd" clip-rule="evenodd" d="M151 13.1298L139.296 0.966309H11.7035L-0.000106812 13.129V29.5258L11.7032 41.6882H139.298L151 29.5272V13.1298Z"/>
</mask>
<path fill-rule="evenodd" clip-rule="evenodd" d="M151 13.1298L139.296 0.966309H11.7035L-0.000106812 13.129V29.5258L11.7032 41.6882H139.298L151 29.5272V13.1298Z" fill="#25262B"/>
<path d="M151 13.1298L151.921 12.2434L152.278 12.6147V13.1298H151ZM139.296 0.966309V-0.312115H139.84L140.217 0.0798778L139.296 0.966309ZM11.7035 0.966309L10.7823 0.0798776L11.1595 -0.312115H11.7035V0.966309ZM-0.000106812 13.129H-1.27853V12.6138L-0.92131 12.2426L-0.000106812 13.129ZM-0.000106812 29.5258L-0.92131 30.4122L-1.27853 30.041V29.5258H-0.000106812ZM11.7032 41.6882V42.9666H11.1592L10.782 42.5746L11.7032 41.6882ZM139.298 41.6882L140.219 42.5746L139.842 42.9666H139.298V41.6882ZM151 29.5272H152.278V30.0424L151.921 30.4137L151 29.5272ZM150.079 14.0163L138.374 1.85274L140.217 0.0798778L151.921 12.2434L150.079 14.0163ZM139.296 2.24473H11.7035V-0.312115H139.296V2.24473ZM12.6247 1.85274L0.921097 14.0154L-0.92131 12.2426L10.7823 0.0798776L12.6247 1.85274ZM1.27832 13.129V29.5258H-1.27853V13.129H1.27832ZM0.921097 28.6393L12.6245 40.8017L10.782 42.5746L-0.92131 30.4122L0.921097 28.6393ZM11.7032 40.4097H139.298V42.9666H11.7032V40.4097ZM138.377 40.8017L150.079 28.6408L151.921 30.4137L140.219 42.5746L138.377 40.8017ZM149.722 29.5272V13.1298H152.278V29.5272H149.722Z" fill="url(#paint0_linear_2140_220)" mask="url(#path-3-inside-1_2140_220)"/>
<defs>
<linearGradient id="paint0_linear_2140_220" x1="75.5" y1="41.6882" x2="75.5" y2="0.966309" gradientUnits="userSpaceOnUse">
<stop stop-color="#1F1F25"/>
<stop offset="1" stop-color="#35353A"/>
</linearGradient>
</defs>
</svg>
