<svg width="182" height="47" viewBox="0 0 182 47" fill="none" xmlns="http://www.w3.org/2000/svg">
<path fill-rule="evenodd" clip-rule="evenodd" d="M0.000294685 46.9992H12.0669L0.000294685 34.9326V46.9992Z" fill="#EAE9E6"/>
<path fill-rule="evenodd" clip-rule="evenodd" d="M181.116 0.000504595L169.049 0.00050354L181.116 12.0674L181.116 0.000504595Z" fill="#EAE9E6"/>
<mask id="path-3-inside-1_2315_502" fill="white">
<path fill-rule="evenodd" clip-rule="evenodd" d="M181.115 14.0386L167.077 0H14.0377L-9.15527e-05 14.0378V32.9623L14.0376 46.9999H167.08L181.115 32.9642V14.0386Z"/>
</mask>
<path d="M181.115 14.0386L182.52 12.634L183.102 13.2158V14.0386H181.115ZM167.077 0V-1.98645H167.9L168.482 -1.40463L167.077 0ZM14.0377 0L12.6331 -1.40463L13.2149 -1.98645H14.0377V0ZM-9.15527e-05 14.0378H-1.98654V13.215L-1.40472 12.6332L-9.15527e-05 14.0378ZM-9.15527e-05 32.9623L-1.40472 34.3669L-1.98654 33.7851V32.9623H-9.15527e-05ZM14.0376 46.9999V48.9864H13.2148L12.6329 48.4046L14.0376 46.9999ZM167.08 46.9999L168.484 48.4046L167.903 48.9864H167.08V46.9999ZM181.115 32.9642H183.102V33.787L182.52 34.3688L181.115 32.9642ZM179.711 15.4432L165.672 1.40463L168.482 -1.40463L182.52 12.634L179.711 15.4432ZM167.077 1.98645H14.0377V-1.98645H167.077V1.98645ZM15.4424 1.40463L1.40454 15.4425L-1.40472 12.6332L12.6331 -1.40463L15.4424 1.40463ZM1.98636 14.0378V32.9623H-1.98654V14.0378H1.98636ZM1.40454 31.5576L15.4422 45.5953L12.6329 48.4046L-1.40472 34.3669L1.40454 31.5576ZM14.0376 45.0135H167.08V48.9864H14.0376V45.0135ZM165.675 45.5953L179.711 31.5596L182.52 34.3688L168.484 48.4046L165.675 45.5953ZM179.129 32.9642V14.0386H183.102V32.9642H179.129Z" fill="url(#paint0_linear_2315_502)" mask="url(#path-3-inside-1_2315_502)"/>
<defs>
<linearGradient id="paint0_linear_2315_502" x1="90.5577" y1="47" x2="90.5577" y2="0" gradientUnits="userSpaceOnUse">
<stop stop-color="#1F1F25"/>
<stop offset="0.715" stop-color="#35353A"/>
</linearGradient>
</defs>
</svg>
