<svg width="18" height="18" viewBox="0 0 18 18" fill="none" xmlns="http://www.w3.org/2000/svg">
<path d="M9 18C13.9706 18 18 13.9706 18 9C18 4.02944 13.9706 0 9 0C4.02944 0 0 4.02944 0 9C0 13.9706 4.02944 18 9 18Z" fill="#53AE94"/>
<path d="M9.93406 7.89194V6.82904H12.3524V5.15234H5.64107V6.82904H8.06567V7.89194C6.03437 7.99004 4.50977 8.39774 4.50977 8.88194C4.50977 9.36614 6.03257 9.77564 8.06567 9.87194V13.3819H9.93406V9.87194C11.9654 9.77474 13.49 9.36704 13.49 8.88194C13.49 8.39684 11.9699 7.99004 9.93406 7.89194ZM8.99987 9.56234C6.80027 9.56234 5.01737 9.22214 5.01737 8.81264C5.01737 8.46074 6.31607 8.16464 8.06387 8.08544V9.28604C8.36447 9.29954 8.67677 9.30764 8.99807 9.30764C9.31937 9.30764 9.63347 9.29954 9.93227 9.28604V8.08544C11.6801 8.16464 12.9788 8.46074 12.9788 8.81264C12.9824 9.22664 11.1995 9.56234 8.99987 9.56234Z" fill="white"/>
</svg>
