<?xml version="1.0" encoding="UTF-8"?> <svg xmlns="http://www.w3.org/2000/svg" width="32" height="32" viewBox="0 0 32 32" fill="none"><path d="M24.1096 12.9787C24.0841 12.9436 24.0613 12.9147 24.0396 12.8896C24.0604 12.9185 24.0808 12.947 24.1016 12.9758C24.104 12.9763 24.1063 12.9773 24.1096 12.9787Z" fill="#EAE9E6"></path><path d="M20.8267 13.3726C20.8267 13.3752 20.8293 13.3735 20.8306 13.3748C20.8362 13.3618 20.8371 13.357 20.8267 13.3726Z" fill="#EAE9E6"></path><path d="M24.1455 13.0371C24.1654 13.0665 24.1858 13.0963 24.2061 13.1266C24.1791 13.0854 24.1607 13.0579 24.1455 13.0371Z" fill="#EAE9E6"></path><path d="M17.2908 15.4644C17.3116 15.5099 17.3216 15.5402 17.3282 15.5649C17.3249 15.5255 17.5122 15.7997 17.2908 15.4644Z" fill="#EAE9E6"></path><path d="M24.0983 12.988C24.1111 12.9951 24.1248 13.0093 24.1452 13.0373C24.13 13.016 24.1158 12.9956 24.1021 12.9757C24.095 12.9724 24.0912 12.9733 24.0983 12.988Z" fill="#EAE9E6"></path><path d="M15.5904 24.7621C15.479 24.7607 15.3656 24.7597 15.2717 24.7588L15.5904 24.7621Z" fill="#EAE9E6"></path><path d="M8.18517 12.6226C8.1667 12.6486 8.15107 12.6732 8.1416 12.6926L8.18517 12.6226Z" fill="#EAE9E6"></path><path d="M14.1642 24.7622C14.1001 24.7527 14.0318 24.7475 13.9617 24.7441C13.947 24.746 13.9299 24.7479 13.9199 24.7508L14.1642 24.7622Z" fill="#EAE9E6"></path><path d="M12.5245 24.7603C12.5047 24.7607 12.4871 24.7617 12.4739 24.7626C12.4876 24.7621 12.507 24.7612 12.5245 24.7603Z" fill="#EAE9E6"></path><path d="M7.48706 13.6419C7.4989 13.622 7.51263 13.5988 7.52826 13.5713C7.515 13.594 7.50079 13.6182 7.48706 13.6419Z" fill="#EAE9E6"></path><path d="M31.9028 24.5458C31.9042 24.543 31.9028 24.5406 31.8971 24.5382C31.8274 24.4386 31.7581 24.3395 31.6893 24.2418C31.6092 24.1232 31.53 24.0066 31.4527 23.8923L31.5129 23.9881C31.4811 23.9729 31.4423 23.9184 31.3963 23.8434C31.3991 23.8463 31.4019 23.8491 31.4034 23.851C31.3986 23.8444 31.3934 23.8377 31.3882 23.8311C31.3076 23.6983 31.207 23.5086 31.0885 23.3587C31.1335 23.419 31.1667 23.4251 31.1506 23.4114C30.9286 23.0694 30.674 22.727 30.3192 22.23C30.3145 22.2229 30.3102 22.2153 30.3059 22.2087L30.3529 22.2585C30.2253 22.0493 29.9967 21.7202 29.8535 21.4978C29.8227 21.465 29.7828 21.4105 29.7605 21.3849C29.7264 21.337 29.696 21.2948 29.6695 21.2559C29.5158 20.996 29.3494 20.757 29.1838 20.5255L29.172 20.5018L29.1587 20.49C29.1212 20.4383 29.0843 20.3866 29.0473 20.3354C29.0449 20.3301 29.0444 20.3278 29.0473 20.3306C29.0107 20.2818 28.996 20.2628 28.9918 20.2585C28.9486 20.1983 28.9055 20.1381 28.8633 20.0778C28.8025 19.9868 28.7371 19.8915 28.6797 19.8066C28.6138 19.7055 28.5507 19.6031 28.4924 19.4988C28.5408 19.5704 28.6171 19.6633 28.5787 19.6064L28.2415 19.1279C28.232 19.1123 28.2197 19.0914 28.2026 19.0639C28.1571 19.0131 28.0988 18.9278 28.0371 18.8329C28.0338 18.8253 28.0286 18.8149 28.0196 18.7992C28.0196 18.8011 28.0233 18.8092 28.0295 18.8211C27.9498 18.6978 27.8649 18.5597 27.7952 18.4601C27.7753 18.4611 27.5211 18.0675 27.3091 17.7644C27.3129 17.7677 27.2973 17.7426 27.2688 17.6985C27.2342 17.6421 27.2034 17.598 27.1507 17.5159L27.1602 17.5311L26.9349 17.174L26.9885 17.2674C26.9852 17.2641 26.9819 17.2603 26.9781 17.257C26.8908 17.1246 26.8031 16.9923 26.74 16.8951L26.7481 16.9017C26.7063 16.8652 26.5721 16.6675 26.4445 16.4816C26.4445 16.4778 26.446 16.4754 26.4502 16.4768C26.4384 16.4559 26.4246 16.4332 26.4113 16.4099C26.4265 16.4294 26.4455 16.455 26.4687 16.4872C26.4592 16.4801 26.454 16.4782 26.4498 16.4768C26.4498 16.4778 26.4507 16.4787 26.4507 16.4787L26.4697 16.4887C26.4725 16.4929 26.4754 16.4963 26.4787 16.501L26.4706 16.4891L26.4725 16.4901C26.4725 16.4901 26.4711 16.4891 26.4702 16.4882L26.3772 16.3507C26.3706 16.3393 26.3649 16.3284 26.3597 16.3189C26.3658 16.326 26.372 16.3331 26.3777 16.3397L26.354 16.3084C26.3378 16.2786 26.3312 16.2629 26.345 16.2767C26.2145 16.1249 26.1742 15.9921 25.9893 15.7782C25.9897 15.7626 25.8712 15.6018 25.9153 15.626C25.7645 15.4159 25.9361 15.6853 25.9148 15.6739C25.9143 15.6734 25.9138 15.6725 25.9134 15.672C25.819 15.5368 25.7199 15.3922 25.6141 15.2281C25.6122 15.2271 25.6117 15.2281 25.6122 15.2319C25.5017 15.0574 25.3841 14.8677 25.2508 14.6765C25.2494 14.6713 25.2466 14.6647 25.2423 14.6571C25.2414 14.658 25.2437 14.6637 25.2485 14.6732C25.1939 14.5954 25.1365 14.5177 25.0763 14.4404C25.046 14.3891 25.0872 14.438 25.0161 14.327C24.9668 14.2658 24.8572 14.0913 24.8425 14.0946C24.7894 14.0164 24.7851 13.9979 24.768 13.9656C24.6694 13.8305 24.3289 13.3197 24.4223 13.4843L24.4456 13.5203C24.4408 13.5137 24.4356 13.5061 24.4299 13.498C24.336 13.3662 24.2421 13.2291 24.1491 13.0906C24.1439 13.0792 24.1378 13.0669 24.1311 13.0532C24.106 13.0166 24.087 12.9929 24.0714 12.9744C24.0325 12.9161 23.9941 12.8578 23.9556 12.7994C23.9798 12.8222 24.0078 12.8502 24.0405 12.8886C23.9689 12.7933 23.8973 12.6979 23.8252 12.6021C23.775 12.5263 23.7247 12.4508 23.6749 12.3759C23.7095 12.4167 23.7588 12.4802 23.7882 12.5139C23.701 12.3925 23.5857 12.2294 23.4909 12.1027L23.4942 12.1013C23.4197 11.9951 23.3396 11.8784 23.2618 11.7646C23.2684 11.7632 23.2694 11.7532 23.2618 11.7309C23.2215 11.6906 23.1945 11.6607 23.1708 11.6323C23.0873 11.5113 23.01 11.4004 22.9483 11.3178C22.8947 11.2382 22.8283 11.1253 22.8563 11.1561C22.8008 11.0774 22.7648 11.0257 22.7287 10.9745C22.7268 10.9716 22.7245 10.9683 22.7226 10.9655L22.7572 10.992L22.6382 10.8313C22.631 10.8241 22.6263 10.8204 22.6225 10.8194C22.6116 10.8028 22.5997 10.7857 22.5874 10.7668C22.5751 10.7853 22.5613 10.8061 22.5462 10.8289C22.5424 10.8289 22.5381 10.8308 22.5324 10.8336C22.5443 10.8156 22.5618 10.7886 22.5874 10.7492C22.5974 10.7639 22.6154 10.7905 22.6363 10.8222C22.6168 10.7928 22.5988 10.7653 22.5874 10.7483C22.5665 10.78 22.5471 10.809 22.5291 10.836C22.4954 10.8573 22.429 10.9309 22.2972 11.112L22.1222 11.4331L22.0411 11.5204L22.2061 11.2614C22.0951 11.397 22.0506 11.4995 21.9936 11.61C21.9685 11.6285 21.9339 11.6674 21.8912 11.7257L21.756 12.0013C21.7451 12.0178 21.7342 12.0344 21.7238 12.0506C21.7157 12.0359 21.7731 11.9211 21.6531 12.0928C21.6033 12.1943 21.674 12.1084 21.6835 12.1132C21.646 12.172 21.6095 12.2298 21.5744 12.2868C21.5227 12.3432 21.5142 12.3441 21.4392 12.4845C21.4141 12.5025 21.4317 12.4622 21.4715 12.3916C21.3875 12.5457 21.2291 12.78 21.1888 12.8796L21.1718 12.9071C21.0513 13.0569 20.8559 13.4117 20.8317 13.3752C20.8113 13.424 20.707 13.6213 20.6216 13.7631C20.614 13.775 20.606 13.7868 20.5989 13.7982C20.7122 13.534 20.255 14.3289 20.2541 14.2331C20.1692 14.4475 19.8287 14.9317 19.6323 15.2822C19.6413 15.2613 19.6594 15.2205 19.6802 15.192C19.555 15.3799 19.5085 15.4278 19.4227 15.5454C19.436 15.5843 19.2956 15.8219 19.205 15.995C19.1827 16.0324 19.177 16.0457 19.1657 16.068C18.9982 16.2653 19.2254 15.8973 19.1505 15.9513C19.1832 15.9556 18.9157 16.3715 18.9873 16.3061C18.8545 16.4721 18.8797 16.4536 18.7953 16.529C18.8138 16.5849 18.6952 16.6988 18.6241 16.8614C18.5316 16.9843 18.5121 16.9947 18.4941 17.0113C18.4851 17.0194 18.4766 17.0293 18.46 17.0549C18.4519 17.0677 18.4419 17.0839 18.4282 17.1057C18.4258 17.1109 18.423 17.1175 18.4197 17.1261C18.4078 17.1318 18.4116 17.1114 18.4106 17.1024C18.4106 17.0976 18.4097 17.0943 18.4083 17.0924C18.4106 17.0853 18.4272 17.0578 18.4249 17.0611C18.4192 17.0701 18.4135 17.0786 18.4083 17.0867C18.4035 17.0938 18.4068 17.0891 18.4059 17.091V17.0924C18.4064 17.0952 18.4068 17.0971 18.4068 17.0986C18.4078 17.1123 18.4078 17.1175 18.4083 17.1218C18.4087 17.1379 18.414 17.1503 18.413 17.1687C18.4106 17.1725 18.4078 17.1768 18.4054 17.1811L18.4021 17.1759C18.4021 17.1797 18.4035 17.1849 18.4054 17.191C18.4054 17.191 18.4054 17.191 18.4059 17.191C18.4059 17.1915 18.4049 17.1925 18.4045 17.1934C18.3974 17.1839 18.3917 17.1754 18.3869 17.1678C18.3846 17.1635 18.3822 17.1593 18.3803 17.1564C18.377 17.1503 18.3755 17.1465 18.3765 17.1465C18.3736 17.1427 18.3718 17.1403 18.3694 17.1374C18.3637 17.1242 18.3642 17.1175 18.368 17.1137C18.3718 17.1019 18.3898 17.1061 18.3604 17.0459C18.2371 16.8714 18.1232 16.7405 18.0289 16.6082C18.0066 16.5726 17.9881 16.5442 17.9729 16.5209C17.9677 16.5057 17.9601 16.4896 17.9843 16.5162C17.8136 16.3056 17.5446 15.847 17.3436 15.6028C17.3331 15.5814 17.3293 15.57 17.3284 15.5639C17.3317 15.5776 17.3336 15.5885 17.3341 15.5975C17.3156 15.5715 17.2971 15.5439 17.2734 15.5074L17.3341 15.6037C17.3341 15.607 17.3341 15.6103 17.3331 15.6127C17.2876 15.5496 17.2193 15.4448 17.1297 15.312C17.1254 15.2935 17.2378 15.469 17.1994 15.405C17.1747 15.3723 17.1501 15.3362 17.1254 15.2988C17.1505 15.3258 17.2155 15.4297 17.2516 15.4728C17.2591 15.4851 17.2667 15.4965 17.2734 15.5074L17.2516 15.4728C17.2625 15.4861 17.271 15.4937 17.2743 15.4913C17.2008 15.387 17.1207 15.2769 17.0429 15.1693C16.9855 15.0768 16.9257 14.9772 16.8603 14.8738C16.9329 14.9791 16.9988 15.0796 16.912 14.9179L17.1055 15.2357C16.9917 14.9706 17.2264 15.4268 17.1282 15.1788C16.8679 14.7643 16.8148 14.7296 16.5553 14.3161C16.4961 14.2511 16.5293 14.3161 16.5084 14.3061C16.4373 14.1918 16.3875 14.1032 16.2495 13.9025C16.2869 13.9751 16.3035 14.0017 16.2471 13.9234C16.1314 13.7128 16.156 13.6621 15.9312 13.3742C15.8928 13.332 15.8596 13.304 15.8198 13.2614C15.7505 13.1594 15.6794 13.0555 15.603 12.9431L15.696 13.0228C15.4394 12.6244 15.5044 12.825 15.253 12.3963C15.3133 12.4622 15.4669 12.7013 15.4314 12.6391C15.2791 12.3546 15.2896 12.4599 15.1544 12.2531L15.153 12.1929C14.8679 11.7769 14.5535 11.3178 14.2381 10.8569C14.2628 10.8777 14.324 10.9522 14.2604 10.8374C13.8611 10.2565 13.44 9.57685 13.0833 8.99778L12.9183 8.79575C12.8856 8.74501 12.8675 8.69521 12.9074 8.7469C12.7713 8.51973 12.8851 8.74501 12.8063 8.64446C12.7224 8.51926 12.7105 8.46946 12.7698 8.54487C12.6608 8.395 12.5166 8.19297 12.3677 7.97766C12.2942 7.86953 12.2183 7.75808 12.1443 7.649C12.048 7.50198 11.9536 7.35733 11.8654 7.22217C11.808 7.30469 11.753 7.38342 11.7013 7.45787C11.679 7.4887 11.6577 7.5181 11.6368 7.54703C11.6202 7.56885 11.6041 7.59019 11.5889 7.61058L11.6359 7.52664C11.4983 7.71729 11.4561 7.82115 11.3931 7.93687C11.3381 8.02082 11.2792 8.10998 11.2223 8.1925L11.2541 8.13748C11.2228 8.18254 11.191 8.22807 11.1597 8.27359L11.1678 8.26126C11.1152 8.33193 11.0582 8.41729 10.9966 8.51215C10.6039 9.09026 10.2136 9.6864 9.89347 10.099C9.86169 10.2105 9.49082 10.6795 9.43913 10.817C9.40308 10.8716 9.37226 10.9185 9.3457 10.9607C9.15457 11.2064 9.1669 11.1704 8.82259 11.6508C8.72015 11.7973 8.70213 11.8907 8.58309 12.0771L8.55606 12.0653L8.41284 12.3309L8.29475 12.4437L8.18472 12.6197C8.23262 12.5523 8.2938 12.4817 8.2938 12.4968C8.12307 12.7724 7.83519 13.1395 7.81812 13.1376L7.40931 13.7859C7.40931 13.7707 7.44678 13.7072 7.48709 13.6393C7.34339 13.8793 7.44725 13.6384 7.27415 13.9386C7.30782 13.9006 7.2732 13.9708 7.2732 13.9808C7.15416 14.1259 6.91561 14.4778 6.74582 14.7425L6.76337 14.6813C6.44088 15.1489 6.10036 15.6786 5.74277 16.207C5.82624 16.0936 5.85802 16.0742 5.84616 16.1116C5.8362 16.1268 5.82624 16.141 5.81581 16.1562C5.82529 16.1448 5.83336 16.1353 5.84047 16.1273C5.82956 16.1534 5.80727 16.1932 5.7755 16.2421L5.70815 16.2871C5.65598 16.3976 5.82719 16.1316 5.7072 16.3502C5.68396 16.3839 5.66547 16.4085 5.65029 16.427C5.66737 16.3938 5.66689 16.3862 5.60761 16.4673C5.59623 16.4654 5.61852 16.4109 5.65693 16.3445L5.50327 16.5902C5.4862 16.5992 5.52035 16.5404 5.52035 16.519C5.4696 16.6281 5.21492 16.916 5.14616 17.0763L5.12956 17.0848C4.77671 17.6155 4.61689 17.8564 4.32949 18.2889C4.33897 18.3027 4.30008 18.3681 4.25218 18.4483C4.15401 18.5958 4.05395 18.7471 3.97285 18.8747C3.79974 19.1142 3.61383 19.3702 3.4265 19.6501C3.31837 19.8251 3.33355 19.8142 3.34161 19.816C3.3179 19.8526 3.29371 19.8886 3.27 19.9247C3.18985 20.0238 3.06322 20.2083 3.15381 20.0503C2.84791 20.5094 2.76302 20.637 2.38788 21.226C2.38978 21.2236 2.39168 21.2217 2.39357 21.2194C2.36607 21.2625 2.33571 21.3095 2.30536 21.355C2.30346 21.3555 2.30252 21.355 2.30252 21.3531L2.31911 21.3242C2.28924 21.3735 2.25746 21.4233 2.22474 21.4736C2.22142 21.4783 2.2181 21.4835 2.21478 21.4878L2.28971 21.3631C2.12562 21.5983 1.99947 21.7904 1.8847 21.9696C1.53469 22.4586 1.15339 22.9514 0.940925 23.3274L0.958473 23.2971L0.827578 23.5086C0.740789 23.6376 0.659217 23.76 0.580964 23.879C0.6061 23.8316 0.633132 23.7789 0.566737 23.8638C0.482319 24.0052 0.403118 24.1308 0.327711 24.2461C0.211518 24.4178 0.103862 24.5766 0 24.7303C0.205827 24.7317 0.403118 24.7331 0.605626 24.7341C0.742211 24.7341 0.882591 24.7322 1.03435 24.7251C1.47921 24.7957 2.61268 24.7199 3.21309 24.7654L3.17847 24.7488C3.33355 24.7327 3.36627 24.7583 3.48057 24.7621C3.46444 24.7493 3.31221 24.7469 3.40848 24.7379C4.72312 24.718 6.1217 24.7621 7.46954 24.7772C7.96229 24.7815 7.74935 24.6909 8.37063 24.7308L8.1942 24.7616C9.18872 24.7246 10.2283 24.763 11.2019 24.7312C11.1441 24.7384 11.1422 24.7478 11.0473 24.7474C11.2532 24.7697 11.808 24.7483 11.8114 24.7303C11.9631 24.7322 11.8465 24.7469 11.9399 24.7564C12.1462 24.7697 12.4578 24.7279 12.5673 24.7502C12.5792 24.7526 12.5531 24.755 12.5223 24.7569C12.6992 24.7512 13.0847 24.7597 12.969 24.7365C13.3347 24.7488 13.6681 24.7251 13.9597 24.7403C14.1499 24.7113 14.5853 24.754 14.646 24.7132C14.6199 24.7554 15.2867 24.7474 15.5177 24.7274C15.4404 24.7403 15.7188 24.7407 15.6282 24.7583C15.8919 24.7578 16.1337 24.7497 16.0877 24.7279C16.5734 24.7787 17.0642 24.6871 17.3379 24.7521C18.1213 24.7293 18.846 24.7142 19.5508 24.7042C19.5251 24.7464 18.772 24.7085 18.8019 24.7526C19.4706 24.735 19.8562 24.699 20.5192 24.709C20.6909 24.7146 20.4215 24.7275 20.3636 24.7346C21.0314 24.717 21.6546 24.7384 22.2488 24.7156C22.1421 24.69 22.6818 24.663 22.7477 24.6482C22.5756 24.7004 23.3372 24.6611 23.0252 24.7298C23.1025 24.726 23.1987 24.717 23.1812 24.7042C23.2955 24.708 23.332 24.7156 23.2158 24.7303C23.6355 24.7199 23.4861 24.6995 23.8665 24.6999C23.8651 24.7094 23.7882 24.7127 23.7493 24.7237C23.9419 24.7056 24.1349 24.6876 24.4565 24.6952C24.4399 24.6999 24.4655 24.7061 24.4095 24.7075C24.9449 24.7033 25.3305 24.6601 25.9243 24.6772C25.746 24.7175 26.1301 24.6905 26.1624 24.7256L26.4877 24.7151L26.3573 24.698C26.6423 24.6985 26.8941 24.6734 27.1393 24.6848L26.9273 24.699L27.4613 24.6924L27.1592 24.6791C27.4476 24.6611 27.1284 24.635 27.5078 24.6445C27.4305 24.6478 27.7929 24.6445 27.9418 24.6653H27.9408C28.0817 24.6544 28.2268 24.6426 28.4378 24.6511C28.4924 24.6625 28.3937 24.6895 28.4293 24.6971C28.5683 24.6677 29.0971 24.689 29.273 24.6577C29.2142 24.6648 29.2114 24.6833 29.2303 24.6871L29.347 24.6634C29.4788 24.671 29.4983 24.6748 29.4769 24.6895C29.8744 24.6938 29.3508 24.6454 29.8222 24.6644C29.7852 24.6663 29.8028 24.6701 29.7259 24.6734C30.1992 24.6833 30.6408 24.6582 31.0757 24.6701C31.2042 24.7052 30.6958 24.6786 30.8423 24.7085C31.2203 24.7004 31.613 24.6919 32 24.6838C31.9668 24.6364 31.9341 24.5899 31.9013 24.543L31.9028 24.5458ZM25.2072 14.7353L25.2138 14.7534L25.063 14.5305C25.0659 14.5328 25.0697 14.5362 25.0735 14.5399C25.118 14.6059 25.1626 14.6708 25.2067 14.7353H25.2072ZM27.3153 17.8142C27.3153 17.8142 27.312 17.8095 27.3101 17.8071C27.3115 17.809 27.3124 17.8104 27.3139 17.8123C27.3139 17.8128 27.3148 17.8137 27.3148 17.8142H27.3153ZM18.7967 21.585C18.8517 21.4963 18.8844 21.4778 18.8555 21.5376C19.011 21.253 19.3117 20.7356 19.5209 20.4648L19.4919 20.5251C19.6447 20.3079 19.6067 20.2429 19.7613 20.0494L19.74 20.0916C20.0615 19.6135 20.3845 19.0648 20.6572 18.7172C20.669 18.6257 20.9802 18.2472 20.9541 18.186C21.1552 17.9242 21.1125 18.0087 21.3781 17.6293C21.4473 17.5268 21.4487 17.4557 21.5265 17.3238L21.5526 17.3362L21.6394 17.145L21.7281 17.0706L21.7992 16.9458C21.767 16.9928 21.7228 17.0412 21.7205 17.0293C21.8305 16.8339 22.033 16.5807 22.0482 16.584L22.3142 16.1249C22.3166 16.1368 22.2929 16.1823 22.2673 16.2302C22.3588 16.0595 22.3033 16.2359 22.4119 16.0215C22.3878 16.0471 22.4077 15.9964 22.4058 15.9883C22.439 15.9494 22.4836 15.8878 22.5324 15.8157C22.5447 15.7977 22.5575 15.7787 22.5703 15.7597L22.5874 15.7313C22.595 15.7398 22.6021 15.7484 22.6088 15.7559C22.6031 15.7597 22.5988 15.765 22.5955 15.7716L22.6002 15.7797L22.6187 15.8076C22.6472 15.8494 22.6756 15.8916 22.7046 15.9343C22.7634 16.0192 22.8231 16.1055 22.8838 16.1932C23.0052 16.3687 23.1295 16.5494 23.2552 16.7305C23.1741 16.5944 23.2229 16.6049 23.2983 16.7101L23.3021 16.7699C23.3647 16.8287 23.2357 16.6513 23.351 16.7808C23.4406 16.9193 23.3842 16.8923 23.323 16.8192L23.4439 16.9795C23.443 16.9942 23.4126 16.9582 23.396 16.9544C23.4577 17.0118 23.5644 17.2579 23.6583 17.3381L23.6573 17.3523C23.9087 17.7146 24.023 17.8792 24.2274 18.1746C24.253 18.1656 24.327 18.2851 24.4048 18.362C24.5456 18.5854 24.6926 18.8396 24.8729 19.1023C25.009 19.2801 24.9279 19.144 24.9971 19.2185C24.9867 19.2455 25.1664 19.5073 25.0597 19.3807C25.2769 19.6946 25.3367 19.7819 25.6236 20.1713C25.6023 20.1224 25.5729 20.0712 25.5966 20.0921C25.6487 20.1623 25.7 20.2628 25.6834 20.259L25.6682 20.2415C26.0016 20.6702 26.3113 21.3171 26.5944 21.6467L26.5788 21.6282L26.7149 21.8065C26.7433 21.8444 26.7485 21.8487 26.759 21.8601L26.7926 21.898C26.814 21.9331 26.7969 21.9165 26.7808 21.9023C26.7632 21.8867 26.749 21.8786 26.7471 21.8886C26.7542 21.8952 26.7609 21.9014 26.7666 21.907C26.7599 21.9108 26.7481 21.9132 26.7348 21.9151C26.7163 21.917 26.7172 21.918 26.6798 21.9184C26.5868 21.9175 26.5 21.917 26.4151 21.9165C26.2458 21.9137 26.0841 21.9099 25.8958 21.9227C25.588 21.852 24.8036 21.9279 24.3882 21.8824L24.4124 21.899C24.3052 21.9151 24.2824 21.8895 24.2032 21.8857C24.2146 21.8985 24.3199 21.9009 24.253 21.9099C23.3434 21.9298 22.3754 21.8857 21.4426 21.8705C21.1016 21.8663 21.2491 21.9568 20.8189 21.917L20.9408 21.8862C20.2527 21.9232 19.5332 21.8848 18.8593 21.9165C18.8996 21.9094 18.9005 21.8999 18.9665 21.9004C18.8934 21.889 18.7568 21.889 18.6407 21.8942C18.6468 21.8852 18.6535 21.8757 18.6596 21.8663L18.7336 21.7003C18.7564 21.6652 18.7858 21.6419 18.7659 21.6827C18.8735 21.5343 18.7564 21.6652 18.7948 21.5855L18.7967 21.585ZM7.54447 18.4198C7.5459 18.4341 7.52977 18.472 7.47903 18.5564C7.47096 18.5574 7.461 18.5569 7.45721 18.5488L7.54447 18.4198ZM17.9203 21.4091C17.8894 21.3617 17.851 21.3024 17.8107 21.2398C17.8093 21.2213 17.8268 21.2308 17.852 21.2701C17.833 21.2521 17.8885 21.3469 17.9203 21.4091ZM17.6656 21.0202C17.639 20.9808 17.6163 20.9472 17.6016 20.9258C17.6148 20.9453 17.6333 20.9728 17.6656 21.0202ZM11.8778 12.0506C11.8702 12.0496 11.8621 12.0482 11.854 12.0473L11.8649 12.0311L11.8778 12.0506ZM11.818 12.1008C11.8232 12.1193 11.8327 12.1445 11.8474 12.1767L11.846 12.1853L11.8488 12.1805C11.8635 12.2132 11.8834 12.2521 11.91 12.3019L12.0703 12.4983L12.0973 12.5779L11.9797 12.401C12.029 12.5125 12.0855 12.567 12.1424 12.632C12.1443 12.6553 12.1571 12.6889 12.1808 12.733L12.3515 12.9175C12.3539 12.9521 12.2624 12.8431 12.3454 12.9872C12.425 13.0735 12.3164 12.8729 12.4322 13.0271C12.4815 13.139 12.4488 13.1181 12.5408 13.2277C12.5422 13.2504 12.5199 13.2291 12.4848 13.185C12.565 13.2832 12.6721 13.461 12.7276 13.5027C12.776 13.6213 12.9662 13.8556 12.9249 13.8679C12.9548 13.8959 13.0738 14.0358 13.1383 14.1321C12.9809 13.9822 13.3736 14.4963 13.2986 14.4788C13.4215 14.5855 13.6249 14.9412 13.7975 15.1598C13.7862 15.1489 13.7634 15.1271 13.752 15.1053C13.8345 15.2381 13.8483 15.2831 13.8962 15.3718C13.9379 15.3685 14.0778 15.5672 14.1689 15.6644C14.2443 15.8442 14.0693 15.5909 14.0736 15.6597C14.093 15.6355 14.2803 15.9215 14.2656 15.8536C14.3273 15.9883 14.3259 15.9651 14.3415 16.0448C14.3942 16.041 14.4226 16.1548 14.5127 16.2406C14.6099 16.4303 14.5066 16.3099 14.646 16.4967C14.6948 16.5973 14.5677 16.4327 14.5677 16.4327C14.6967 16.6314 14.6569 16.5072 14.701 16.5385C14.8641 16.7699 14.7513 16.6618 14.7892 16.7524C14.8936 16.8951 14.9941 16.9909 15.0652 17.1019C15.0657 17.1133 15.078 17.1356 15.0557 17.1147C15.181 17.256 15.3602 17.5776 15.5082 17.7407C15.5144 17.7559 15.5167 17.7644 15.5167 17.7692C15.512 17.7303 15.5238 17.716 15.5381 17.7151C15.5969 17.8038 15.6642 17.8683 15.6671 17.9138C15.632 17.8588 15.6215 17.8593 15.5988 17.8379L15.668 17.9257C15.6955 18.0272 15.5755 17.8047 15.5551 17.818C15.6827 17.994 15.844 18.1908 15.9274 18.3349C15.9198 18.3814 15.7055 18.0153 15.8032 18.2164L15.6723 17.9944C15.7382 18.1865 15.5898 17.8616 15.6438 18.0423C15.8217 18.3307 15.8648 18.3506 16.0422 18.638C16.0986 18.6921 16.0503 18.6024 16.1067 18.6565C16.3965 19.0406 16.2466 19.0165 16.4757 19.2887C16.5435 19.3536 16.5966 19.3612 16.7161 19.5832L16.6393 19.531C16.8157 19.8075 16.7849 19.6595 16.9528 19.9597C16.9077 19.9166 16.8015 19.7506 16.8252 19.7947C16.9234 19.9963 16.9286 19.9152 17.022 20.0584L17.0149 20.1053C17.2146 20.3913 17.4356 20.7072 17.6566 21.024C17.6371 21.0112 17.5925 20.9614 17.6338 21.0425C17.7481 21.2051 17.8633 21.3806 17.9762 21.558C18.0459 21.6694 18.1161 21.7814 18.1854 21.8923C18.0753 21.8995 17.9648 21.9123 17.915 21.8976C17.9065 21.8952 17.9259 21.8928 17.9478 21.8909C17.8264 21.8971 17.556 21.8881 17.6367 21.9118C17.3839 21.8995 17.1529 21.9232 16.9509 21.908C16.8195 21.9369 16.5179 21.8942 16.4761 21.935C16.4942 21.8928 16.0327 21.9009 15.8729 21.9208C15.9265 21.908 15.7339 21.9075 15.7965 21.89C15.6139 21.8904 15.447 21.8985 15.4788 21.9203C15.1425 21.8696 14.803 21.9611 14.6137 21.8961C14.0717 21.9189 13.5699 21.9341 13.0824 21.944C13.0999 21.9018 13.6216 21.9398 13.6003 21.8957C13.1379 21.9132 12.8708 21.9493 12.4122 21.9393C12.2937 21.9336 12.4796 21.9208 12.5199 21.9137C12.058 21.9312 11.6264 21.9099 11.2152 21.9327C11.2892 21.9583 10.9155 21.9853 10.87 22C10.989 21.9483 10.4621 21.9872 10.6779 21.9184C10.6248 21.9222 10.5574 21.9312 10.5698 21.944C10.4906 21.9402 10.4654 21.9327 10.5456 21.918C10.2553 21.9284 10.3582 21.9488 10.0955 21.9483C10.0964 21.9388 10.1496 21.9355 10.1766 21.9246C10.0433 21.9426 9.90959 21.9606 9.68716 21.953C9.69902 21.9483 9.681 21.9421 9.71989 21.9407C9.34949 21.945 9.08249 21.9881 8.67178 21.9711C8.79509 21.9308 8.5295 21.9578 8.50721 21.9227L8.28194 21.9331L8.37252 21.9502C8.17523 21.9497 8.00071 21.9749 7.8314 21.9635L7.97794 21.9493L7.6085 21.9559L7.81764 21.9692C7.61798 21.9872 7.83899 22.0133 7.57625 22.0038C7.62936 22.0005 7.37896 22.0038 7.27604 21.9829H7.27652C7.17882 21.9938 7.07875 22.0057 6.93268 21.9972C6.89474 21.9858 6.96303 21.9583 6.93837 21.9512C6.8421 21.9806 6.47645 21.9592 6.35456 21.9905C6.39535 21.9834 6.39725 21.9649 6.38397 21.9611L6.30334 21.9848C6.21181 21.9772 6.19853 21.9734 6.21323 21.9587C5.93817 21.9545 6.3005 22.0028 5.97421 21.9839C5.99982 21.982 5.98749 21.9787 6.04108 21.9749C5.87746 21.9696 5.71906 21.9734 5.56398 21.9772C5.39372 21.9806 5.28938 21.9843 5.19026 21.9782C5.21303 21.9583 5.21967 21.9568 5.21967 21.9621C5.26709 21.9521 5.35815 21.9625 5.33539 21.9398C5.30883 21.9407 5.28227 21.9421 5.25524 21.9431C5.27895 21.9023 5.30266 21.8606 5.32685 21.8188L5.48146 21.5694C5.58485 21.4039 5.68871 21.2412 5.79494 21.0909L5.74799 21.1535C5.73945 21.0776 5.94338 20.9083 6.04298 20.719C6.01689 20.7641 6.0278 20.7911 6.03112 20.7764C6.19901 20.5426 6.35029 20.2822 6.58173 19.9123L6.56229 19.964C6.66662 19.8298 6.81791 19.5979 6.92509 19.4494C6.94501 19.3973 7.00524 19.3119 6.9545 19.3541C7.33106 18.9273 7.5255 18.4402 7.85653 18.0589C7.82286 18.1087 7.78587 18.1837 7.81243 18.1438L8.04197 17.7839C8.00498 17.7995 7.99976 17.8227 7.93573 17.8877C7.95518 17.836 8.01446 17.7303 8.07374 17.643C7.97794 17.8099 8.10362 17.661 8.16006 17.5994C8.14678 17.607 8.15674 17.5795 8.14725 17.5814C8.30423 17.4182 8.13208 17.5259 8.32415 17.2883V17.3082C8.38343 17.2105 8.42991 17.1152 8.50152 17.0151C8.55085 16.9871 8.44319 17.1223 8.45599 17.1403C8.55132 16.9966 8.60728 16.8316 8.71541 16.7163C8.67747 16.7799 8.62388 16.869 8.58594 16.933C8.70545 16.8088 8.7102 16.7879 8.78513 16.686L8.77754 16.6959L8.95207 16.4612L8.90369 16.5185C8.97056 16.3032 9.13987 16.1477 9.26745 15.883C9.14272 16.1401 9.26081 15.9347 9.27219 15.9689C9.32009 15.912 9.39075 15.8233 9.37937 15.8541C9.43723 15.7275 9.52307 15.6739 9.60369 15.4946C9.61603 15.4927 9.68669 15.3732 9.68859 15.4116C9.78296 15.2594 9.65159 15.4377 9.65065 15.4187C9.77917 15.1731 10.0448 14.9037 10.2311 14.5513C10.3933 14.2824 10.4156 14.2013 10.5451 13.9803L10.5982 13.9021C10.638 13.8679 10.5612 14.0088 10.5612 14.0088C10.6689 13.8731 10.74 13.7645 10.8221 13.6237C10.8102 13.6555 10.8349 13.6313 10.8709 13.5957C10.942 13.4861 10.8922 13.5046 10.9999 13.3695C10.9918 13.3998 10.9843 13.4401 10.9572 13.498C11.0341 13.3647 11.1104 13.2315 11.1901 13.0939C11.2271 13.0679 11.1564 13.1869 11.1332 13.2395C11.2275 13.0873 11.3812 12.8473 11.3912 12.7876L11.3371 12.8554C11.3537 12.8407 11.3513 12.871 11.3328 12.9042C11.2631 13.0422 11.2015 13.0826 11.1891 13.0845L11.2479 12.9872C11.1384 13.0536 10.9999 13.3695 10.8695 13.5568L10.8866 13.4748L11.8161 12.1004L11.818 12.1008ZM10.7879 13.6687C10.7661 13.6901 10.7438 13.7043 10.7429 13.6906L10.869 13.5042L10.7879 13.6687ZM10.1505 14.566C10.1477 14.5817 10.1353 14.613 10.0998 14.6803L10.0462 14.7202L10.1505 14.566ZM28.9562 20.286C28.9562 20.286 28.9557 20.286 28.9553 20.286L28.8291 20.0992C28.8315 20.1006 28.8348 20.1025 28.8381 20.1053C28.8765 20.1637 28.9159 20.2239 28.9562 20.286ZM27.6771 18.3625C27.6378 18.3108 27.5989 18.2595 27.5595 18.2059C27.5998 18.2562 27.6387 18.3084 27.6771 18.3625ZM26.3995 16.4816C26.3838 16.4621 26.3682 16.4427 26.3521 16.4232C26.3687 16.4431 26.3834 16.4607 26.3966 16.4763C26.3976 16.4782 26.399 16.4797 26.4 16.4816H26.3995ZM24.4906 13.6839L24.4143 13.5706C24.4119 13.5644 24.41 13.5601 24.41 13.5578C24.4503 13.6175 24.4906 13.6777 24.529 13.7351C24.5167 13.719 24.5039 13.7015 24.4906 13.6839ZM24.1956 13.2215L24.1468 13.1603C24.1672 13.1921 24.1904 13.2277 24.2146 13.2647C24.2136 13.2666 24.2113 13.267 24.208 13.2651L24.0254 12.9953L24.1084 13.0958C24.1368 13.1366 24.1657 13.1784 24.1956 13.2215ZM24.0263 12.9787L23.9969 12.954L23.5521 12.2962C23.691 12.4987 23.8437 12.7174 24.0263 12.9787ZM28.2273 19.1165C28.2315 19.1336 28.2387 19.1488 28.2481 19.1668C28.2154 19.1194 28.1822 19.0696 28.1509 19.0188C28.1713 19.0406 28.2026 19.0833 28.2268 19.1165H28.2273ZM27.8891 18.6717C27.863 18.6522 27.8232 18.6086 27.7269 18.4464L27.7421 18.4549C27.7895 18.5242 27.8379 18.5963 27.8891 18.6717ZM26.7557 16.9838L26.7533 16.9814C26.7054 16.9136 26.658 16.842 26.6077 16.768C26.6309 16.7946 26.6698 16.8482 26.7557 16.9838ZM23.4999 12.1203C23.526 12.1554 23.5464 12.1857 23.563 12.2128C23.5421 12.1819 23.5208 12.1506 23.4999 12.1203ZM22.8089 11.1794C22.889 11.2979 22.9678 11.4141 23.0451 11.5279L22.9834 11.4331C22.9834 11.4331 22.9882 11.4378 22.9905 11.4402C23.0133 11.471 23.037 11.5019 23.0612 11.5327C23.0745 11.5526 23.0887 11.5744 23.1039 11.5981C23.102 11.6048 23.083 11.5863 23.075 11.582C23.0982 11.6095 23.1224 11.638 23.1456 11.6641C23.222 11.7859 23.314 11.9344 23.4079 12.0624C23.3642 12.0013 23.341 11.9884 23.3548 12.0041C23.3652 12.0197 23.3761 12.0359 23.3865 12.052L22.6159 10.9124C22.6168 10.91 22.6182 10.9071 22.6187 10.9052C22.6415 10.9375 22.6638 10.9697 22.6861 11.002C22.7273 11.0617 22.7681 11.121 22.8084 11.1798L22.8089 11.1794ZM22.5874 10.8592C22.5964 10.872 22.605 10.8844 22.6135 10.8967C22.6121 10.8986 22.6111 10.9005 22.6097 10.9024L22.5903 10.8735L22.5912 10.8701L22.5898 10.8725L22.5855 10.8664L22.567 10.8948C22.567 10.8948 22.567 10.8929 22.567 10.8915C22.5737 10.8806 22.5808 10.8697 22.5874 10.8588V10.8592ZM21.1869 12.8829C21.1855 12.8862 21.1841 12.8895 21.1831 12.8924C21.1798 12.8962 21.1765 12.9009 21.1732 12.9047L21.1869 12.8824V12.8829ZM18.4121 17.173C18.4121 17.173 18.4121 17.1749 18.4121 17.1763L18.4097 17.1792L18.4125 17.173H18.4121ZM16.4871 14.29C16.4871 14.29 16.4837 14.2867 16.4818 14.2843L16.4069 14.1795C16.3505 14.0979 16.3087 14.0325 16.2765 13.977L16.4871 14.29ZM14.231 10.8635C14.2694 10.9209 14.3017 10.9697 14.3225 11.001C14.3036 10.9726 14.277 10.9328 14.2305 10.864L14.231 10.8635ZM5.61852 16.4645C5.6152 16.4673 5.61235 16.4687 5.61045 16.4697C5.62041 16.4578 5.62231 16.4574 5.61852 16.4645Z" fill="#EAE9E6"></path><path d="M22.3839 24.7173L22.2696 24.7225C22.2616 24.7216 22.2559 24.7201 22.2507 24.7187C22.2478 24.7225 22.1847 24.7268 22.1245 24.7301C22.2417 24.7287 22.3967 24.7363 22.3835 24.7173H22.3839Z" fill="#EAE9E6"></path><path d="M8.5498 12.0654L8.55596 12.0682L8.5839 12.0166L8.5498 12.0654Z" fill="#EAE9E6"></path><path d="M27.1505 17.5158L27.0315 17.3232C27.0832 17.4067 27.1207 17.4674 27.1505 17.5158Z" fill="#EAE9E6"></path><path d="M22.1247 24.7305C22.1081 24.7305 22.092 24.7314 22.0773 24.7319C21.9661 24.7371 22.0418 24.7352 22.1247 24.7305Z" fill="#EAE9E6"></path><path d="M27.9417 24.6685C27.8796 24.6727 27.8189 24.6765 27.7549 24.6808C27.8583 24.6827 27.9389 24.6832 27.9417 24.6685Z" fill="#EAE9E6"></path><path d="M27.4841 24.6806C27.5875 24.6858 27.6743 24.6849 27.7545 24.6806C27.6696 24.6787 27.5695 24.6763 27.4841 24.6806Z" fill="#EAE9E6"></path><path d="M23.4653 12.0199C23.4653 12.0199 23.4616 12.0199 23.4578 12.0166L23.4975 12.0696L23.4653 12.0199Z" fill="#EAE9E6"></path><path d="M23.4187 11.9634C23.4357 11.9885 23.4504 12.0098 23.458 12.0159L23.4187 11.9634Z" fill="#EAE9E6"></path><path d="M23.3354 11.8525L23.4183 11.9634C23.3918 11.9236 23.3591 11.8743 23.3354 11.8525Z" fill="#EAE9E6"></path><path d="M24.3994 13.424L24.4174 13.4337C24.4105 13.4267 24.404 13.423 24.3994 13.424Z" fill="#EAE9E6"></path><path d="M24.4327 13.4426L24.418 13.4341C24.473 13.49 24.6029 13.7485 24.6788 13.832C24.6143 13.7329 24.5299 13.5754 24.4327 13.4426Z" fill="#EAE9E6"></path><path d="M30.6342 24.7074L30.7139 24.6855L30.4673 24.6927L30.6342 24.7074Z" fill="#EAE9E6"></path><path d="M11.5026 12.7002C11.5362 12.5973 11.5604 12.5835 11.5936 12.4711C11.6406 12.3953 11.6889 12.3478 11.6899 12.3668C11.7008 12.3364 11.7734 12.2558 11.7838 12.2051C11.6989 12.2876 11.6159 12.409 11.5462 12.5475C11.522 12.5712 11.5334 12.5399 11.5329 12.5304C11.4864 12.6257 11.4409 12.7405 11.5026 12.7002Z" fill="#EAE9E6"></path><path d="M10.9216 13.5677C10.9372 13.5416 10.9491 13.5194 10.9585 13.4985L10.9202 13.561C10.9202 13.561 10.9216 13.5648 10.9216 13.5677Z" fill="#EAE9E6"></path><path d="M12.9213 13.8696C12.9213 13.8696 12.9235 13.8673 12.9249 13.8669C12.9172 13.8597 12.9141 13.8584 12.9213 13.8696Z" fill="#EAE9E6"></path><path d="M10.8923 13.605L10.8506 13.667C10.8705 13.6391 10.8833 13.6201 10.8923 13.605Z" fill="#EAE9E6"></path><path d="M15.5176 17.7694C15.5152 17.7997 15.3841 17.6112 15.5375 17.8428C15.5247 17.8101 15.52 17.7878 15.5176 17.7694Z" fill="#EAE9E6"></path><path d="M10.9092 13.5601C10.9092 13.5715 10.9049 13.5843 10.8926 13.6051C10.902 13.59 10.9115 13.5753 10.9205 13.5611C10.92 13.5549 10.9172 13.5521 10.9092 13.5601Z" fill="#EAE9E6"></path><path d="M15.8254 21.8901L16.074 21.8939C16.0042 21.893 15.9141 21.8916 15.8254 21.8901Z" fill="#EAE9E6"></path><path d="M21.7991 16.9472C21.8114 16.9292 21.8218 16.9117 21.8275 16.8975L21.7991 16.9472Z" fill="#EAE9E6"></path><path d="M16.8123 21.8901C16.8568 21.8996 16.9038 21.9048 16.9522 21.9082C16.9626 21.9063 16.9745 21.9044 16.9811 21.9015L16.8123 21.8901Z" fill="#EAE9E6"></path><path d="M17.9487 21.8905C17.9613 21.89 17.9729 21.8891 17.9813 21.8882C17.9725 21.8886 17.9604 21.8896 17.9487 21.8905Z" fill="#EAE9E6"></path><path d="M11.321 12.8773L11.3383 12.8555C11.3336 12.8592 11.328 12.8662 11.321 12.8773Z" fill="#EAE9E6"></path><path d="M11.1241 21.9345L11.2033 21.9293C11.209 21.9303 11.2128 21.9317 11.2166 21.9331C11.2185 21.9293 11.2621 21.925 11.3038 21.9217C11.2227 21.9232 11.1155 21.9156 11.1246 21.9345H11.1241Z" fill="#EAE9E6"></path><path d="M11.2161 21.9333H11.2168L11.2161 21.9326V21.9333Z" fill="#EAE9E6"></path><path d="M22.2677 16.2314C22.2602 16.2457 22.2516 16.2622 22.2417 16.2821C22.2497 16.2655 22.2592 16.2485 22.2677 16.2314Z" fill="#EAE9E6"></path><path d="M21.5582 17.3403L21.5525 17.3374L21.5354 17.3749L21.5582 17.3403Z" fill="#EAE9E6"></path><path d="M8.18536 17.5752C8.18536 17.5752 8.17326 17.5859 8.16162 17.5989C8.16628 17.5961 8.17326 17.5896 8.18536 17.5752Z" fill="#EAE9E6"></path><path d="M8.78613 16.6861C8.81029 16.6548 8.84012 16.616 8.88132 16.562L8.78613 16.6861Z" fill="#EAE9E6"></path><path d="M9.27315 15.9878C9.27548 15.9766 9.27408 15.972 9.27315 15.9683L9.27222 15.9697L9.27315 15.9883V15.9878Z" fill="#EAE9E6"></path><path d="M11.3035 21.9206C11.3148 21.9206 11.3262 21.9196 11.3361 21.9191C11.4129 21.9139 11.3608 21.9158 11.3035 21.9206Z" fill="#EAE9E6"></path><path d="M7.27783 21.9825C7.32099 21.9783 7.3632 21.9745 7.4073 21.9702C7.33569 21.9683 7.27973 21.9678 7.27783 21.9825Z" fill="#EAE9E6"></path><path d="M7.5948 21.9704C7.52319 21.9651 7.46343 21.9661 7.40747 21.9704C7.46628 21.9723 7.53552 21.9746 7.5948 21.9704Z" fill="#EAE9E6"></path><path d="M11.3725 12.9075C11.3725 12.9075 11.3711 12.9042 11.3716 12.9009L11.3484 12.9407L11.3721 12.9075H11.3725Z" fill="#EAE9E6"></path><path d="M11.395 12.8613C11.3832 12.8789 11.3733 12.8935 11.3723 12.9006L11.395 12.8613Z" fill="#EAE9E6"></path><path d="M11.395 12.8612C11.4135 12.8337 11.4372 12.8006 11.4433 12.7783L11.395 12.8612Z" fill="#EAE9E6"></path><path d="M10.7075 13.8672V13.8826C10.7102 13.8758 10.7102 13.8708 10.7075 13.8672Z" fill="#EAE9E6"></path><path d="M10.7087 13.8956V13.8823C10.6902 13.9345 10.5484 14.0782 10.5181 14.1512C10.5655 14.0848 10.6494 13.9928 10.7087 13.8951V13.8956Z" fill="#EAE9E6"></path><path d="M5.3723 21.9657L5.53023 21.9585L5.41451 21.9438C5.39269 21.951 5.38511 21.9585 5.37183 21.9657H5.3723Z" fill="#EAE9E6"></path><path d="M24.4137 13.473C24.4023 13.454 24.3872 13.4308 24.3696 13.4048L24.4137 13.473Z" fill="#EAE9E6"></path><path d="M24.3702 13.4041L24.2573 13.2286C24.245 13.2196 24.3142 13.3192 24.3702 13.4041Z" fill="#EAE9E6"></path><path d="M27.788 18.4322C27.7553 18.3825 27.7326 18.373 27.7146 18.3569C27.7378 18.3816 27.7648 18.4166 27.7951 18.4597C27.7979 18.4592 27.7961 18.4507 27.788 18.4322Z" fill="#EAE9E6"></path><path d="M24.4136 13.4727C24.4196 13.4824 24.4252 13.4917 24.4285 13.4978C24.4243 13.4894 24.4243 13.4894 24.421 13.4843L24.4136 13.4727Z" fill="#EAE9E6"></path><path d="M28.7214 19.8384L28.9505 20.1836C28.914 20.1206 28.8666 20.038 28.9733 20.1936C28.6935 19.7521 29.024 20.2894 28.7219 19.8384H28.7214Z" fill="#EAE9E6"></path><path d="M28.0215 18.7709C27.9385 18.6566 27.9186 18.6291 28.0078 18.769C28.1344 18.9521 28.0125 18.7628 28.0215 18.7709Z" fill="#EAE9E6"></path><path d="M22.8066 11.0769L22.8293 11.0887C22.7318 10.9476 22.8246 11.0901 22.8066 11.0769Z" fill="#EAE9E6"></path></svg> 