<svg width="12" height="6" viewBox="0 0 12 6" fill="none" xmlns="http://www.w3.org/2000/svg">
<mask id="path-1-inside-1_2223_2649" fill="white">
<path fill-rule="evenodd" clip-rule="evenodd" d="M6 5.99948L11.9997 -0.000260673H0.000260673L6 5.99948Z"/>
</mask>
<path fill-rule="evenodd" clip-rule="evenodd" d="M6 5.99948L11.9997 -0.000260673H0.000260673L6 5.99948Z" fill="#D9D9D9"/>
<path d="M11.9997 -0.000260673L11.9997 -0.600261L13.4483 -0.600261L12.424 0.424003L11.9997 -0.000260673ZM6 5.99948L6.42426 6.42374L6 6.84801L5.57574 6.42374L6 5.99948ZM0.000260673 -0.000260673L-0.424003 0.424003L-1.44827 -0.600261L0.000261263 -0.600261L0.000260673 -0.000260673ZM12.424 0.424003L6.42426 6.42374L5.57574 5.57521L11.5755 -0.424525L12.424 0.424003ZM0.000261263 -0.600261L11.9997 -0.600261L11.9997 0.599739L0.000260757 0.599739L0.000261263 -0.600261ZM5.57574 6.42374L-0.424003 0.424003L0.424525 -0.424525L6.42426 5.57521L5.57574 6.42374Z" fill="#EAE9E6" mask="url(#path-1-inside-1_2223_2649)"/>
</svg>
