<svg width="49" height="52" viewBox="0 0 49 52" fill="none" xmlns="http://www.w3.org/2000/svg">
<path d="M1 44.1218L11.3171 33.8047H28.5122L30.8049 35.5242V38.9632H21.061" stroke="url(#paint0_linear_2315_520)" stroke-width="1.4"/>
<path d="M9.02441 50.9997L14.7561 45.268H33.6708L48 30.9387L46.2805 28.9326H42.8415L34.8171 36.957" stroke="url(#paint1_linear_2315_520)" stroke-width="1.4"/>
<path d="M25.6461 8.00469H30.8013L35.8363 13.0398V18.1949V23.3501L30.8013 28.3852H25.6461H20.4909L15.4559 23.3501V18.1949V13.0398L20.4909 8.00469H25.6461Z" stroke="url(#paint2_linear_2315_520)" stroke-width="1.4"/>
<path d="M23.3096 13.2279V18.1954M23.3096 13.2279H20.4878M23.3096 13.2279H24.7204M27.5422 18.1954L29.6585 16.9535V14.4698L28.2476 13.2279H26.8368M27.5422 18.1954L29.6585 19.4372V21.921L27.5422 23.1628H26.8368M27.5422 18.1954H23.3096M23.3096 23.1628V18.1954M23.3096 23.1628H20.4878M23.3096 23.1628H24.7204M24.7204 13.2279H26.8368M24.7204 13.2279V10.7441M26.8368 13.2279V10.7441M26.8368 23.1628V25.6466M26.8368 23.1628H24.7204M24.7204 23.1628V25.6466" stroke="url(#paint3_linear_2315_520)" stroke-width="1.4"/>
<path d="M44.5611 22.7805V11.3171L34.244 1H17.0489L6.73185 11.3171V26.2195M6.73185 26.2195L11.3172 21.061M6.73185 26.2195L2.14648 21.061" stroke="url(#paint4_linear_2315_520)" stroke-width="1.4"/>
<defs>
<linearGradient id="paint0_linear_2315_520" x1="1" y1="38.9632" x2="24.334" y2="38.9632" gradientUnits="userSpaceOnUse">
<stop stop-color="#007227"/>
<stop offset="1" stop-color="#81D100"/>
</linearGradient>
<linearGradient id="paint1_linear_2315_520" x1="9.02441" y1="39.9662" x2="39.5381" y2="39.9662" gradientUnits="userSpaceOnUse">
<stop stop-color="#007227"/>
<stop offset="1" stop-color="#81D100"/>
</linearGradient>
<linearGradient id="paint2_linear_2315_520" x1="14.7559" y1="18.1949" x2="31.8076" y2="18.1949" gradientUnits="userSpaceOnUse">
<stop stop-color="#007227"/>
<stop offset="1" stop-color="#81D100"/>
</linearGradient>
<linearGradient id="paint3_linear_2315_520" x1="20.4878" y1="18.1954" x2="27.6675" y2="18.1954" gradientUnits="userSpaceOnUse">
<stop stop-color="#007227"/>
<stop offset="1" stop-color="#81D100"/>
</linearGradient>
<linearGradient id="paint4_linear_2315_520" x1="2.14648" y1="13.6098" x2="35.3526" y2="13.6098" gradientUnits="userSpaceOnUse">
<stop stop-color="#007227"/>
<stop offset="1" stop-color="#81D100"/>
</linearGradient>
</defs>
</svg>
