<svg width="20" height="19" viewBox="0 0 20 19" fill="none" xmlns="http://www.w3.org/2000/svg">
<g clip-path="url(#clip0_2315_834)">
<path d="M16.326 3.30324C15.1625 2.74884 13.9148 2.34039 12.6103 2.10645C12.5866 2.10194 12.5628 2.11322 12.5506 2.13578C12.3901 2.43216 12.2124 2.8188 12.0879 3.12269C10.6848 2.90456 9.28892 2.90456 7.91459 3.12269C7.7901 2.81204 7.6059 2.43216 7.44472 2.13578C7.43248 2.11397 7.40875 2.10269 7.38499 2.10645C6.08119 2.33964 4.83351 2.7481 3.6693 3.30324C3.65922 3.30775 3.65058 3.31528 3.64484 3.32505C1.27826 6.99666 0.62996 10.578 0.947997 14.115C0.949436 14.1323 0.95879 14.1488 0.971741 14.1593C2.53314 15.3501 4.04563 16.073 5.53002 16.5522C5.55378 16.5597 5.57895 16.5507 5.59407 16.5303C5.9452 16.0324 6.25821 15.5073 6.52658 14.9552C6.54242 14.9229 6.5273 14.8845 6.49493 14.8717C5.99845 14.6761 5.5257 14.4377 5.07095 14.1669C5.03499 14.1451 5.03211 14.0916 5.0652 14.0661C5.16089 13.9916 5.25661 13.9141 5.34799 13.8359C5.36452 13.8216 5.38756 13.8186 5.407 13.8276C8.39451 15.2441 11.6288 15.2441 14.5811 13.8276C14.6005 13.8178 14.6236 13.8208 14.6408 13.8351C14.7322 13.9134 14.8279 13.9916 14.9243 14.0661C14.9574 14.0916 14.9553 14.1451 14.9193 14.1669C14.4646 14.4429 13.9918 14.6761 13.4946 14.871C13.4622 14.8837 13.4478 14.9229 13.4637 14.9552C13.7378 15.5066 14.0508 16.0316 14.3955 16.5296C14.4099 16.5507 14.4358 16.5597 14.4595 16.5522C15.9511 16.073 17.4636 15.3501 19.025 14.1593C19.0387 14.1488 19.0473 14.133 19.0487 14.1157C19.4294 10.0266 18.4112 6.47462 16.3497 3.3258C16.3447 3.31528 16.3361 3.30775 16.326 3.30324ZM6.97272 11.9613C6.07327 11.9613 5.33215 11.1038 5.33215 10.0507C5.33215 8.99757 6.0589 8.14005 6.97272 8.14005C7.89371 8.14005 8.62766 9.0051 8.61326 10.0507C8.61326 11.1038 7.88651 11.9613 6.97272 11.9613ZM13.0384 11.9613C12.139 11.9613 11.3979 11.1038 11.3979 10.0507C11.3979 8.99757 12.1246 8.14005 13.0384 8.14005C13.9594 8.14005 14.6934 9.0051 14.679 10.0507C14.679 11.1038 13.9594 11.9613 13.0384 11.9613Z" fill="white" fill-opacity="0.7"/>
</g>
<defs>
<clipPath id="clip0_2315_834">
<rect width="18.2548" height="18.9569" fill="white" transform="translate(0.872559 0.0214844)"/>
</clipPath>
</defs>
</svg>
