<svg width="19" height="19" viewBox="0 0 19 19" fill="none" xmlns="http://www.w3.org/2000/svg">
<g clip-path="url(#clip0_2315_835)">
<path fill-rule="evenodd" clip-rule="evenodd" d="M18.9999 9.47934C18.9999 14.7028 14.7655 18.9372 9.54208 18.9372C4.31865 18.9372 0.0842285 14.7028 0.0842285 9.47934C0.0842285 4.25591 4.31865 0.0214844 9.54208 0.0214844C14.7655 0.0214844 18.9999 4.25591 18.9999 9.47934ZM9.88101 7.00369C8.96109 7.38631 7.12256 8.17825 4.3654 9.3795C3.91768 9.55754 3.68315 9.73172 3.66179 9.90203C3.62571 10.1899 3.98615 10.3032 4.47698 10.4575C4.54375 10.4785 4.61293 10.5003 4.68385 10.5233C5.16675 10.6803 5.81634 10.8639 6.15403 10.8712C6.46035 10.8779 6.80224 10.7516 7.1797 10.4924C9.7558 8.75345 11.0856 7.87451 11.1691 7.85556C11.228 7.84219 11.3096 7.82538 11.3649 7.87453C11.4202 7.92369 11.4148 8.01678 11.4089 8.04175C11.3732 8.19397 9.95833 9.50936 9.22613 10.1901C8.99787 10.4023 8.83595 10.5528 8.80286 10.5872C8.72871 10.6642 8.65314 10.7371 8.58052 10.8071C8.13189 11.2395 7.79546 11.5639 8.59915 12.0935C8.98536 12.348 9.29442 12.5585 9.60274 12.7684C9.93945 12.9977 10.2753 13.2264 10.7098 13.5113C10.8205 13.5838 10.9263 13.6592 11.0292 13.7326C11.4211 14.012 11.7732 14.263 12.2081 14.2229C12.4608 14.1997 12.7219 13.9621 12.8544 13.2533C13.1678 11.5783 13.7836 7.9491 13.926 6.45359C13.9384 6.32257 13.9228 6.15488 13.9102 6.08127C13.8976 6.00766 13.8712 5.90278 13.7755 5.82514C13.6622 5.73319 13.4873 5.7138 13.4091 5.71518C13.0533 5.72145 12.5076 5.91122 9.88101 7.00369Z" fill="white" fill-opacity="0.7"/>
</g>
<defs>
<clipPath id="clip0_2315_835">
<rect width="18.9157" height="18.9157" fill="white" transform="translate(0.0842285 0.0214844)"/>
</clipPath>
</defs>
</svg>
