<svg width="18" height="17" viewBox="0 0 18 17" fill="none" xmlns="http://www.w3.org/2000/svg">
<g clip-path="url(#clip0_2315_536)">
<path d="M15.2417 2.45297C13.6599 0.871123 11.5568 0 9.31975 0C7.08273 0 4.97958 0.871123 3.3978 2.45294C1.81595 4.03475 0.944824 6.13791 0.944824 8.37493C0.944824 10.6119 1.81595 12.7151 3.3978 14.2969C4.97958 15.8787 7.08273 16.7498 9.31975 16.7498C11.5568 16.7498 13.6599 15.8787 15.2417 14.2969C16.8235 12.7151 17.6947 10.6119 17.6947 8.3749C17.6947 6.13787 16.8235 4.03475 15.2417 2.45297ZM4.09249 3.14766C4.82893 2.41123 5.69347 1.84952 6.63578 1.48289C6.3848 1.79623 6.14994 2.15638 5.93471 2.56145C5.68474 3.03189 5.46905 3.54855 5.28942 4.10041C4.66712 3.99713 4.09053 3.87013 3.5754 3.72109C3.73685 3.52264 3.90909 3.33106 4.09249 3.14766ZM2.98062 4.56646C3.58312 4.75938 4.27216 4.92207 5.024 5.05093C4.81463 5.93966 4.69139 6.896 4.66198 7.88372H1.9438C2.021 6.69837 2.377 5.5671 2.98062 4.56646ZM2.92713 12.0925C2.3561 11.1144 2.01868 10.0158 1.94376 8.86614H4.66385C4.69597 9.82562 4.81676 10.7548 5.01906 11.6202C4.25178 11.7446 3.54544 11.9032 2.92713 12.0925ZM4.09249 13.6022C3.88377 13.3934 3.68938 13.1743 3.50916 12.9461C4.04316 12.798 4.64013 12.6726 5.28274 12.5721C5.46365 13.1316 5.68166 13.6551 5.93468 14.1313C6.16924 14.5727 6.42713 14.9606 6.7038 15.2928C5.73512 14.927 4.84663 14.3563 4.09249 13.6022ZM8.82851 15.6413C8.08236 15.4323 7.37651 14.7509 6.8023 13.6703C6.60147 13.2924 6.42507 12.8801 6.27396 12.4407C7.08299 12.3516 7.94388 12.299 8.82851 12.2866V15.6413ZM8.82851 11.3041C7.84747 11.3175 6.89125 11.3791 5.99576 11.4843C5.79823 10.6677 5.67937 9.78381 5.64676 8.86617H8.82854V11.3041H8.82851ZM8.82851 7.88369H5.64489C5.6747 6.94039 5.79545 6.03188 5.99913 5.19452C6.8889 5.30575 7.84312 5.3734 8.82851 5.39277V7.88369ZM8.82851 4.41018C7.94044 4.39229 7.08146 4.33439 6.27815 4.23991C6.42834 3.80506 6.60336 3.39692 6.8023 3.02243C7.37648 1.94181 8.08236 1.26043 8.82851 1.05141V4.41018ZM15.6898 4.61864C16.2746 5.60639 16.6198 6.71888 16.6958 7.88369H13.9776C13.9485 6.90735 13.8276 5.96174 13.6226 5.08178C14.3794 4.95956 15.077 4.80407 15.6898 4.61864ZM14.547 3.14766C14.7442 3.3449 14.9285 3.55166 15.1003 3.7663C14.5745 3.90988 13.9889 4.03174 13.3598 4.12982C13.1783 3.56687 12.9592 3.04026 12.7048 2.56145C12.4896 2.15638 12.2547 1.79623 12.0038 1.48289C12.946 1.84952 13.8106 2.41123 14.547 3.14766ZM9.811 8.86617H12.9928C12.9599 9.79095 12.8395 10.6815 12.6391 11.5034C11.7495 11.3927 10.7957 11.3257 9.811 11.3069V8.86617ZM9.811 7.88369V5.39604C10.7926 5.38315 11.7496 5.32207 12.6459 5.21729C12.8463 6.04833 12.9651 6.94893 12.9946 7.88369H9.811ZM9.81093 1.05141H9.81096C10.5571 1.26043 11.263 1.94181 11.8372 3.02243C12.0393 3.40281 12.2167 3.81799 12.3685 4.26061C11.5583 4.34934 10.6965 4.40158 9.81093 4.41352V1.05141ZM9.811 15.6413V12.2895C10.6982 12.3069 11.5565 12.3642 12.3596 12.4581C12.2098 12.891 12.0353 13.2974 11.8372 13.6703C11.263 14.7509 10.5571 15.4323 9.811 15.6413ZM14.547 13.6022C13.7929 14.3563 12.9044 14.927 11.9357 15.2928C12.2123 14.9606 12.4702 14.5727 12.7048 14.1313C12.9541 13.6622 13.1693 13.147 13.3486 12.5968C13.9854 12.7019 14.5745 12.8319 15.0993 12.9848C14.9278 13.1989 14.7439 13.4053 14.547 13.6022ZM15.6862 12.1374C15.0766 11.9414 14.3776 11.7765 13.6145 11.6464C13.8205 10.7735 13.9432 9.83527 13.9757 8.86617H16.6958C16.6196 10.0334 16.2732 11.1481 15.6862 12.1374Z" fill="white"/>
</g>
<defs>
<clipPath id="clip0_2315_536">
<rect width="16.7498" height="16.7498" fill="white" transform="translate(0.944824)"/>
</clipPath>
</defs>
</svg>
