<svg width="151" height="41" viewBox="0 0 151 41" fill="none" xmlns="http://www.w3.org/2000/svg">
<mask id="path-1-inside-1_2315_572" fill="white">
<path fill-rule="evenodd" clip-rule="evenodd" d="M0.000358582 40.7204H10.0605L0.000358582 30.2656V40.7204Z"/>
</mask>
<path fill-rule="evenodd" clip-rule="evenodd" d="M0.000358582 40.7204H10.0605L0.000358582 30.2656V40.7204Z" fill="#EAE9E6"/>
<path d="M10.0605 40.7204L10.9817 39.834L13.0649 41.9988H10.0605V40.7204ZM0.000358582 40.7204V41.9988H-1.27807V40.7204H0.000358582ZM0.000358582 30.2656H-1.27807V27.0933L0.921557 29.3792L0.000358582 30.2656ZM10.0605 41.9988H0.000358582V39.442H10.0605V41.9988ZM0.921557 29.3792L10.9817 39.834L9.13935 41.6068L-0.920841 31.1521L0.921557 29.3792ZM-1.27807 40.7204V30.2656H1.27878V40.7204H-1.27807Z" fill="url(#paint0_linear_2315_572)" mask="url(#path-1-inside-1_2315_572)"/>
<mask id="path-3-inside-2_2315_572" fill="white">
<path fill-rule="evenodd" clip-rule="evenodd" d="M150.999 0.000343283L140.939 0.000342369L150.999 10.4551L150.999 0.000343283Z"/>
</mask>
<path fill-rule="evenodd" clip-rule="evenodd" d="M150.999 0.000343283L140.939 0.000342369L150.999 10.4551L150.999 0.000343283Z" fill="#EAE9E6"/>
<path d="M140.939 0.000342369L140.018 0.886773L137.935 -1.27808L140.939 -1.27808L140.939 0.000342369ZM150.999 0.000343283L150.999 -1.27808L152.278 -1.27808L152.278 0.000343399L150.999 0.000343283ZM150.999 10.4551L152.278 10.4551L152.278 13.6274L150.078 11.3415L150.999 10.4551ZM140.939 -1.27808L150.999 -1.27808L150.999 1.27877L140.939 1.27877L140.939 -1.27808ZM150.078 11.3415L140.018 0.886773L141.86 -0.886088L151.921 9.56865L150.078 11.3415ZM152.278 0.000343399L152.278 10.4551L149.721 10.4551L149.721 0.000343167L152.278 0.000343399Z" fill="url(#paint1_linear_2315_572)" mask="url(#path-3-inside-2_2315_572)"/>
<mask id="path-5-inside-3_2315_572" fill="white">
<path fill-rule="evenodd" clip-rule="evenodd" d="M151 12.1635L139.296 0H11.7035L-0.000106812 12.1627V28.5595L11.7032 40.7219H139.298L151 28.5609V12.1635Z"/>
</mask>
<path fill-rule="evenodd" clip-rule="evenodd" d="M151 12.1635L139.296 0H11.7035L-0.000106812 12.1627V28.5595L11.7032 40.7219H139.298L151 28.5609V12.1635Z" fill="#25262B"/>
<path d="M151 12.1635L151.921 11.2771L152.278 11.6483V12.1635H151ZM139.296 0V-1.27842H139.84L140.217 -0.886431L139.296 0ZM11.7035 0L10.7823 -0.886431L11.1595 -1.27842H11.7035V0ZM-0.000106812 12.1627H-1.27853V11.6475L-0.92131 11.2762L-0.000106812 12.1627ZM-0.000106812 28.5595L-0.92131 29.4459L-1.27853 29.0747V28.5595H-0.000106812ZM11.7032 40.7219V42.0003H11.1592L10.782 41.6083L11.7032 40.7219ZM139.298 40.7219L140.219 41.6083L139.842 42.0003H139.298V40.7219ZM151 28.5609H152.278V29.0761L151.921 29.4473L151 28.5609ZM150.079 13.05L138.374 0.886431L140.217 -0.886431L151.921 11.2771L150.079 13.05ZM139.296 1.27842H11.7035V-1.27842H139.296V1.27842ZM12.6247 0.886431L0.921097 13.0491L-0.92131 11.2762L10.7823 -0.886431L12.6247 0.886431ZM1.27832 12.1627V28.5595H-1.27853V12.1627H1.27832ZM0.921097 27.673L12.6245 39.8354L10.782 41.6083L-0.92131 29.4459L0.921097 27.673ZM11.7032 39.4434H139.298V42.0003H11.7032V39.4434ZM138.377 39.8354L150.079 27.6745L151.921 29.4473L140.219 41.6083L138.377 39.8354ZM149.722 28.5609V12.1635H152.278V28.5609H149.722Z" fill="url(#paint2_linear_2315_572)" mask="url(#path-5-inside-3_2315_572)"/>
<defs>
<linearGradient id="paint0_linear_2315_572" x1="10.0605" y1="35.4931" x2="2.18438" y2="35.4931" gradientUnits="userSpaceOnUse">
<stop stop-color="#007227"/>
<stop offset="0.505" stop-color="#81D100"/>
<stop offset="1" stop-color="#FFE924"/>
</linearGradient>
<linearGradient id="paint1_linear_2315_572" x1="140.939" y1="5.22771" x2="148.815" y2="5.22771" gradientUnits="userSpaceOnUse">
<stop stop-color="#007227"/>
<stop offset="0.505" stop-color="#81D100"/>
<stop offset="1" stop-color="#FFE924"/>
</linearGradient>
<linearGradient id="paint2_linear_2315_572" x1="151" y1="20.361" x2="32.7832" y2="20.361" gradientUnits="userSpaceOnUse">
<stop stop-color="#007227"/>
<stop offset="0.505" stop-color="#81D100"/>
<stop offset="1" stop-color="#FFE924"/>
</linearGradient>
</defs>
</svg>
